<?xml version="1.0" encoding="utf-8"?>
<!-- Copyright Ryan Landvater, 2021 -->
<!-- Generator: Adobe Illustrator 24.3.0, SVG Export Plug-In . SVG Version: 6.00 Build 0)  -->
<svg version="1.0" id="Layer_1" xmlns="http://www.w3.org/2000/svg" xmlns:xlink="http://www.w3.org/1999/xlink" x="0px" y="0px"
	 viewBox="0 0 216 216" style="enable-background:new 0 0 216 216;" xml:space="preserve">
<style type="text/css">
	.st0{fill:none;}
	.st1{fill:#FFFFFF;}
</style>
<g>
	<rect class="st0" width="216" height="216"/>
	<path class="st0" d="M22.7,81.3c-2.4,1.7-4.7,3.3-7,4.9c0.5,0.5,0.8,0.9,1.2,1.4c2.3-1.6,4.5-3.2,6.9-4.8
		C23.4,82.3,23.1,81.9,22.7,81.3z"/>
	<path class="st0" d="M30.3,102.1c0.4,2.8,4.2,4.8,8.7,4.5c3.1-0.2,6.3-2.5,6.4-4.5C41.5,106,34.4,106.2,30.3,102.1z"/>
	<path class="st0" d="M190.1,17.3c1.1,0,2-0.9,2-2c0-1.1-0.9-2-2-2c-1.1,0-2,0.9-2,2C188.1,16.4,189,17.3,190.1,17.3z"/>
	<path class="st0" d="M38.2,98.7c0.2,0.1,0.5-0.1,0.8-0.1c0,0.1,0,0.2,0,0.2c0.5,0.2,1,0.4,1.5,0.6c0.4,0.1,0.9,0.2,1.3,0.2
		c0.3,0,0.6-0.2,1-0.3c-0.1-0.2-0.2-0.5-0.4-0.7c-0.6-0.5-1.3-0.9-2-1.3c-0.4-0.2-1.1-0.6-1.4-0.4c-0.5,0.2-0.9,0.8-1.3,1.3
		C37.7,98.2,38,98.6,38.2,98.7z"/>
	<path class="st0" d="M35.6,101.2c0,0,0.1,0,0.4,0c0.2-0.2,0.6-0.4,1-0.8c0.2-0.2,0.4-0.5,0.6-0.8c-0.3-0.1-0.6-0.3-0.9-0.3
		c-0.5,0.1-0.5,0-0.7-0.5c-0.2-0.6-0.6-1-1.1-1.5c-0.1-0.1-0.6-0.1-0.8,0c-0.4,0.3-0.7,0.7-0.9,1.2c-0.1,0.2-0.1,0.7,0,0.8
		C33.9,100.1,34.8,100.6,35.6,101.2z"/>
	<path class="st0" d="M32.3,102.1c1.6,1.2,3.5,1.7,5.6,1.7c1.9,0,3.7-0.4,5.3-1.5c3.3-2.2,3.2-6.1,0-8.3c-3.1-2.1-7.8-2-10.8,0.1
		C29.3,96.3,29.3,99.9,32.3,102.1z M32.5,97.5c1.5-1.4,3.4-1.9,5.4-2c2.2,0.2,4.4,0.7,5.9,2.6c0.5,0.7,0.5,1.3,0,1.9
		c-1,1.3-2.4,2-4,2.3c-2.7,0.5-5.2,0.2-7.3-1.8C31.2,99.4,31.2,98.7,32.5,97.5z"/>
	<path class="st0" d="M186.7,25.7c0.5,0,0.9-0.4,0.9-1c0-0.5-0.4-1-1-0.9c-0.5,0-0.9,0.4-0.9,1C185.7,25.3,186.2,25.7,186.7,25.7z"
		/>
	<path class="st0" d="M133.7,64.3c15.7,0,31.4,0,47.1,0c1.7,0,3.5,0.2,4.5-1.5c1.1-1.8-0.2-3.3-1-4.7c-6.4-10.9-12.9-21.9-19.3-32.8
		c-0.4-0.7-0.6-1.6-0.6-2.4c-0.1-3.6-0.1-7.3,0-10.9c0-1,0.4-2.1,0.9-3c0.7-1.4,1.5-2.6,2.4-4c-6.9,0-13.5,0-20.4,0
		c0.8,1.2,1.3,2.3,2,3.2c1.1,1.5,1.5,3.1,1.4,4.9c-0.1,2.9-0.1,5.9,0,8.8c0.1,1.6-0.4,2.9-1.2,4.2C143,37,136.6,47.8,130.3,58.6
		C128,62.5,129.1,64.3,133.7,64.3z M153.7,14.8c0.2-1.6,1.6-1.4,2.9-1.4c0.3,0,0.8-0.1,1.1,0.1c0.5,0.4,1.1,0.9,1.3,1.5
		c0.1,0.4-0.4,1.3-0.7,1.4c-1.3,0.1-2.7,0.1-4-0.1C154,16.3,153.7,15.3,153.7,14.8z M158.3,24.1c-1.3,0.1-2.7,0.1-4-0.2
		c-0.3,0-0.7-1.5-0.4-1.7c0.7-0.6,1.6-1,2.5-1.5c0.1,0.1,0.1,0.2,0.2,0.4c0.4,0,0.8-0.1,1.1,0c0.5,0.3,1.3,0.8,1.4,1.3
		C159.1,23,158.6,24.1,158.3,24.1z M136,55.2c2.5-4.2,5-8.3,7.4-12.5c0.6-1,1.1-1,2-0.8c5.2,1.5,10.3,3,15.6,4.3
		c3.7,0.9,7.6,1,11.4,0.3c0.4-0.1,1.1,0.1,1.3,0.4c2.8,4.6,5.5,9.2,8.4,14.1c-16.6,0-32.9,0-49.5,0C133.8,58.9,134.9,57.1,136,55.2z
		"/>
	<path class="st0" d="M91.6,42.4c1.1-0.4,1.7-1.9,1.3-3.1c-0.4-1.2-1.9-1.9-3.1-1.4c-1.3,0.5-1.8,1.9-1.3,3.1
		C89,42.3,90.4,42.9,91.6,42.4z"/>
	<path class="st0" d="M200.1,21.1c-0.5,0-1,0.5-1,1c0,0.6,0.5,1.1,1,1.1c0.6,0,1-0.5,1-1C201.2,21.6,200.7,21.1,200.1,21.1z"/>
	<path class="st0" d="M193.1,27.6c-0.8,0-1.5,0.7-1.5,1.6c0,0.8,0.7,1.5,1.6,1.5c0.8,0,1.5-0.7,1.5-1.5
		C194.6,28.3,193.9,27.6,193.1,27.6z"/>
	<path class="st0" d="M192.1,25.7c0-0.5-0.4-1-1-1c-0.5,0-1,0.4-1,1c0,0.5,0.4,1,1,1C191.6,26.7,192.1,26.3,192.1,25.7z"/>
	<path class="st0" d="M190.4,19.4c-1.2,0-2.1,0.9-2.1,2.1c0,1.2,0.9,2.2,2.2,2.2c1.2,0,2.1-1,2.1-2.1
		C192.5,20.4,191.6,19.5,190.4,19.4z"/>
	<path class="st0" d="M6.8,205.6c0.6-0.3,1.1-0.6,1.5-1c3.7-3.4,4.8-7.9,5.2-12.6c0.1-2.7-2.7-4.4-5.2-3.2c-1.4,0.7-2.7,1.6-3.8,2.7
		c-3,3.2-3.4,7.2-2.7,11.4C2.4,206,3.9,206.9,6.8,205.6z"/>
	<path class="st0" d="M3.7,41.2c-1.2,0.3-1.4,1.2-1.1,2.2c0.4,1.3,1.3,2.3,2.7,2.6c2.3,0.6,4.6,1.3,7,1.9c0.4,0.1,0.8,0.2,1.3,0.2
		c0,0.2,0.1,0.3,0.1,0.5c-1.6,1.3-0.8,2.3,0.1,3.3c2.8,3.2,5.4,3.9,9.4,2.4c1.8-0.7,3.5-0.7,5.1,0.3c0.6,0.4,1.1,0.9,1.7,1.4
		c2.4,2.1,6,2.4,8.3,0.4c1.1-1,1.9-2.5,2.6-3.9c0.8-1.6,2.1-2.3,3.8-2.4c0.8,0,1.5,0.1,2.3,0.1c2.3,0,4.6,0.3,6.8-0.2
		c3.5-0.8,4.9-2.8,3.7-5.7c-0.6-1.3-1.7-1.8-2.9-2.2c-2.9-0.9-5.9-0.7-8.7,0.2c-2.6,0.9-4.2-0.4-3.9-3.1c0.2-1.2,0.4-2.4,0.9-3.5
		c1.5-3.6,1.6-7.2,0.3-10.9c-0.7-1.9-2-3.2-4-3.4c-2.4-0.2-4.7-1-6.9-2c-0.5-0.2-1.1-1-1-1.3c0.7-2.3-0.7-4-1.8-5.7
		c-0.6-1-1.5-1.2-2.4-0.5c-0.6,0.5-1.3,1.2-1.5,2c-0.3,1-0.3,2.2-0.3,3.3c0.1,2.9-1.3,5-3.5,6.6c-2.2,1.6-4.4,1.3-6.6-0.1
		c-2.4-1.6-4.9-3-8-2.9c-1.7,0-2.5,0.3-2.7,2c-0.2,1.4-0.4,3-0.1,4.3c0.4,1.7,1.1,3.4,2,4.8C8.6,35.6,7.7,40.1,3.7,41.2z M49.1,45.4
		c0.8-0.4,2.4,0.1,2.6,1c0.1,0.6-0.2,1.2-0.3,1.6c-1.4,0.6-2.8,0.2-3.1-0.5C48,46.6,48.2,45.8,49.1,45.4z M39,43.7
		c-0.8,0.5-2.2-0.2-2.9-1.3c0.4-0.7,0.7-1.5,1.2-2.1c0.3-0.4,2.5,1,2.5,1.7C39.9,42.6,39.5,43.4,39,43.7z M38.3,24.7
		c0.9-0.3,1.4,0.2,1.7,0.9c0.3,0.8,0.1,1.4-1,2.1c-0.5-0.3-1.3-0.5-1.5-0.9C37.2,26,37.4,25.1,38.3,24.7z M36,30.5
		c1-0.3,2.2,0.2,2.5,1.2c0.3,0.9,0.1,1.7-0.8,2.1c-0.9,0.4-2.5-0.3-2.8-1.2C34.5,31.7,35,30.8,36,30.5z M33.5,45.1
		c1.2-0.5,3.1,0.3,3.6,1.4c0.3,0.9-0.1,1.8-1,2.2c-1,0.4-3.3-0.5-3.6-1.6C32.1,46.2,32.7,45.6,33.5,45.1z M33.4,53.4
		c0.9-0.6,2.8,0.2,2.9,1.1c0.1,0.5-0.3,1.2-0.3,1.5c-1.5,0.5-3.7,0.1-3.6-0.6C32.4,54.6,32.9,53.7,33.4,53.4z M22.1,50.4
		c-1,0.5-2.4-0.2-2.8-1.2c-0.4-1-0.1-1.7,0.9-2c1.1-0.4,2.2,0,2.7,1.1C23.4,49.3,23,50,22.1,50.4z M27,17.1c0.1-0.7,0.6-1.4,0.9-2.1
		c0.6,0.5,1,0.8,1.3,1.1c0.9,0.8,1.2,1.7,0.7,2.8c-0.2,0.4-1,0.7-1.4,0.6C27.3,19.2,26.8,18.3,27,17.1z M27.1,23.3
		c0.2-0.1,0.3-0.1,0.5-0.2c0.7,0.5,1.5,1,2,1.7c0.2,0.2-0.5,1-0.7,1.6c-0.8-0.4-1.7-0.7-2.2-1.3C26.4,24.8,26.9,23.9,27.1,23.3z
		 M22.3,28.6c0.7-0.9,3.3-0.1,3.8,1.3c-0.2,0.2-0.6,0.8-0.9,0.7c-1-0.2-2-0.5-2.9-1C22.2,29.6,22.1,28.8,22.3,28.6z M17.4,38.5
		c0.4-1,0.7-2,1-3c0.5-1.6,1.4-2.3,3.1-2.1c2.9,0.3,5.3,1.4,6.4,4c1.2,3.6-1,6.5-4.4,6.3c-2.2-0.1-4.1-1-5.7-2.7
		C17.1,40.2,17,39.4,17.4,38.5z M11.4,29.2c1-0.4,1.7,0.1,2,1c0.3,0.8,0.2,1.5-0.7,1.8c-1,0.4-1.7-0.3-2-1.1
		C10.4,30.1,10.6,29.5,11.4,29.2z M9.9,40.6c0.7-0.5,2.1,0.1,2.3,1c0.1,0.5-0.4,1.2-0.6,1.8c-0.8-0.3-1.6-0.7-2.7-1.2
		C9.4,41.4,9.5,40.8,9.9,40.6z"/>
	<path class="st0" d="M195.9,15.6c0.8,0,1.4-0.6,1.4-1.4c0-0.8-0.6-1.4-1.4-1.4c-0.8,0-1.4,0.6-1.4,1.4
		C194.5,14.9,195.1,15.6,195.9,15.6z"/>
	<path class="st0" d="M194,18.7c0.5,0,0.9-0.4,0.9-0.9c0-0.5-0.4-0.9-0.9-0.9c-0.5,0-0.9,0.4-0.9,0.9
		C193.1,18.3,193.5,18.7,194,18.7z"/>
	<path class="st0" d="M194,25.9c0.7,0,1.2-0.5,1.2-1.2c0-0.7-0.5-1.2-1.2-1.2c-0.7,0-1.2,0.5-1.2,1.2
		C192.8,25.4,193.3,25.9,194,25.9z"/>
	<path class="st0" d="M196.5,27.1c0,1.1,0.9,2,2,2c1.1,0,2-0.9,2-2c0-1.1-0.9-2-2-2C197.4,25.1,196.5,26,196.5,27.1z"/>
	<path class="st0" d="M195.2,22.2c0,0.7,0.6,1.4,1.4,1.3c0.7,0,1.3-0.6,1.3-1.3c0-0.8-0.6-1.4-1.3-1.4
		C195.8,20.8,195.2,21.4,195.2,22.2z"/>
	<path class="st0" d="M200.2,19c0.9,0,1.7-0.8,1.7-1.7c0-0.9-0.8-1.7-1.7-1.7c-1,0-1.7,0.8-1.7,1.7C198.4,18.2,199.2,19,200.2,19z"
		/>
	<path class="st0" d="M23.7,42.6c2.4,0.3,4.3-2.1,3.2-5c-0.6-1.1-1.9-2.2-3.5-2.8c-2.9-1-3.9-0.2-4.5,3.1c-0.1,0.4-0.1,0.8-0.3,1
		c-0.7,0.6-0.4,1,0.1,1.5C20,41.7,21.7,42.3,23.7,42.6z"/>
	<path class="st0" d="M184,162.9c4.7-1.4,5.4-2.7,4.5-7.7c-10.3,4.2-20.5,4.3-31-0.1c-0.5,5.7,0,6.6,5.3,8
		C169.8,165,176.9,165,184,162.9z"/>
	<path class="st0" d="M164.4,196.6c1.1,0,2.1-1,2.1-2.2c0-1.1-1-2.2-2.1-2.2c-1.2-0.1-2.3,1-2.3,2.2
		C162.2,195.6,163.3,196.7,164.4,196.6z"/>
	<path class="st0" d="M122.1,128.3c3.9,3.9,9.7,3.9,13.5,0.1c4.3-4.3,8.6-8.5,12.8-12.9c0.9-0.9,1.7-2,2.2-3.2
		c1.6-4.3,0.3-7.9-2.9-11c-6.5-6.3-12.8-12.8-19.2-19.2c-2.7-2.7-5.5-5.5-8.2-8.2c-10,10-19.8,19.8-29.7,29.7c2.5,1.2,5,2.4,7.5,3.6
		c2.8,1.3,5.5,2.6,7.7,4.9C111.2,117.5,116.7,122.9,122.1,128.3z M128.5,90.5c0.7-0.6,1.7,0,1.7,1.1c-0.1,0.1-0.2,0.4-0.4,0.7
		c-0.6,0.7-1.2,1.4-2,1.9c-0.4,0.3-1.2,0.3-1.5,0c-0.3-0.2-0.3-1.1-0.1-1.4C126.8,91.9,127.6,91.2,128.5,90.5z M124.6,86.7
		c0.3-0.2,0.9-0.2,1.3-0.1c0.3,0.1,0.4,0.5,0.6,0.8c-0.1,0.3-0.2,0.6-0.4,0.8c-0.7,0.8-1.4,1.6-2.2,2.2c-0.3,0.2-1.1,0.2-1.4-0.1
		c-0.3-0.2-0.3-1.1-0.1-1.4C123,88.1,123.7,87.4,124.6,86.7z M118.3,85.4c0.8-1,1.7-1.8,2.6-2.7c0.1-0.1,0.3-0.1,0.4-0.1
		c0.9,0,1.5,1,1,1.6c-0.7,0.9-1.6,1.7-2.5,2.5c-0.2,0.2-1,0.1-1.2-0.1C118.4,86.3,118.2,85.6,118.3,85.4z M102.9,106.5
		c-1.8-0.9-3.6-1.7-5.3-2.6c0-0.1,0.1-0.2,0.1-0.3c1.3,0,2.7,0,4,0c14.5,0,29,0,43.6,0c1,0,1.7,0.4,2.2,1.1c1.9,2.7,1.7,6.5-0.7,8.9
		c-4.3,4.3-8.6,8.6-12.9,12.9c-2.9,2.8-7,2.8-9.9,0c-6.1-6.1-12.3-12.3-18.4-18.4C104.8,107.4,103.8,106.9,102.9,106.5z"/>
	<path class="st0" d="M32.9,121.4c0-1.5-1.2-2.8-2.7-2.8c-1.4,0-2.7,1.2-2.7,2.6c0,1.5,1.2,2.8,2.7,2.8
		C31.7,124,32.9,122.9,32.9,121.4z"/>
	<path class="st0" d="M127.2,212.3c1.5,0.7,3.1,0.6,4.7,0.3c3.9-0.9,6.4-3.4,7.9-7c0.6-1.3,0.8-2.7,0.5-4c-0.6-2.7-2.4-4.6-4.8-5.9
		c-0.4-0.2-0.8-0.5-1.1,0.2c-0.1,0.1-0.3,0.2-0.4,0.3c-1.2,0.8-2.6,1.4-3.6,2.3c-2.7,2.4-4.5,5.4-5.5,8.9
		C124.3,209.2,125.3,211.5,127.2,212.3z M135.6,205.5c1.1-1.5,1.5-3.1,0.8-5c0.8,0.4,1,1,0.9,1.6c0,1.3-0.4,2.6-1.3,3.6
		c-0.2,0.2-0.4,0.3-0.6,0.5c-0.1,0-0.1-0.1-0.2-0.1C135.5,205.9,135.5,205.7,135.6,205.5z M131.6,200.4c0.4-0.2,0.8-0.3,1.3,0
		c-2.1,0.7-3.4,2.2-4,4.2c-0.1,0.3-0.1,0.6-0.2,1c-0.2,1.2,0.2,1.9,1.3,2.4c0.3,0.1,0.6,0.3,0.9,0.5c-0.6,0.3-1.1,0.2-1.8-0.3
		c-0.6-0.5-1-1.2-1-2C128.2,203.6,129.3,201.6,131.6,200.4z"/>
	<path class="st0" d="M211.4,60.6c1.5,0.1,2.8-1.2,2.8-2.7c0-1.4-1.2-2.6-2.6-2.7c-1.5-0.1-2.7,1.2-2.7,2.7
		C208.8,59.4,209.9,60.6,211.4,60.6z"/>
	<path class="st0" d="M210.6,133.4c0.6,0,1.1,0,1.7,0c0-3.2,0-6.4,0-9.6c-0.6,0-1.1,0-1.7,0C210.6,127.1,210.6,130.3,210.6,133.4z"
		/>
	<path class="st0" d="M171.3,113.1C171.3,113.1,171.3,113.1,171.3,113.1c0.6-0.1,1.3,0.5,1.9,0.7c0.5,0.1,1,0.3,1.5,0.3
		c0.2,0,0.3,0,0.5-0.1c4.6-1.4,9.1-3,13.7-4.4c0.9-0.3,1.2-0.7,1.2-1.7c0-2.9,0-5.8,0-8.6c0,0,0,0,0,0c0,0,0,0,0,0
		c0-2.9,0-5.8,0-8.6c0-0.9-0.3-1.3-1.1-1.6c-4.2-1.3-8.3-2.7-12.5-4c-0.7-0.2-1.4-0.5-2.1-0.5c-0.7,0-1.4,0.1-2,0.8
		c-0.4,0.4-1.2,0.3-1.8,0.5c-0.6,0.2-1.3,0.4-1.6,0.9c-2.9,3.9-5.7,7.8-8.6,11.7c-0.5,0.6-0.6,1.1-0.1,1.8c2.7,3.6,5.4,7.3,8,11
		c0.7,0.9,1.3,1.8,2.5,1.9C170.9,113.1,171.1,113.1,171.3,113.1C171.3,113.1,171.3,113.1,171.3,113.1z M167.2,100
		c-0.6,0.8-1.2,1.2-1.9,1.2c-0.4,0-0.8-0.1-1.1-0.4c-1.1-0.9-0.9-1.9-0.1-2.9c1.6-2.2,3.1-4.5,4.8-6.5c0.4-0.5,1.3-0.7,2-0.7
		c0.1,0,0.2,0,0.3,0c0.5,0.1,0.9,1,1.4,1.5L167.2,100z"/>
	<path class="st0" d="M65.8,130.4c-2.3,0-4.1,1.8-4.1,4c0,2.3,1.8,4.1,4.2,4.1c2.2,0,4-1.9,4-4.1C69.9,132.1,68.1,130.4,65.8,130.4z
		"/>
	<path class="st0" d="M185.4,180c-1.4-0.7-2.5-0.5-3.4,0.7c-1.1,1.5-1,3.2-0.5,4.8c0,0.1,0.2,0.3,0.3,0.4c0.4,0.3,0.9,0.7,1.3,0.9
		c0.4,0.2,0.8,0.3,1.2,0.3c2.6-0.1,4.3-2.8,3.1-5.2C187,181.2,186.3,180.5,185.4,180z M183.8,185.3c0,0.1-0.4,0.3-0.6,0.2
		c-0.7-0.2-0.2-0.7-0.2-1.1C183.4,184.6,183.9,184.6,183.8,185.3z M183.5,182.9c-0.4,0.2-0.6,0.1-0.8-0.3c-0.2-0.4-0.1-0.7,0.2-0.9
		c0.4-0.2,0.6-0.1,0.8,0.3C184,182.4,183.9,182.7,183.5,182.9z M184.5,180.4c0.3,0.1,0.5,0.1,0.8,0.2c-0.2,0.3-0.3,0.5-0.5,0.8
		c0,0-0.4-0.1-0.4-0.1C184.4,181,184.4,180.8,184.5,180.4z M185.7,185.9c-0.4,0.2-0.7,0.1-0.9-0.3c-0.2-0.3-0.1-0.8,0.3-0.9
		c0.4-0.2,0.7-0.1,0.9,0.3C186,185.3,186.1,185.6,185.7,185.9z M186.6,183.7c-0.9-0.4-0.9-0.4-0.6-1.1c0.2,0.1,0.6,0.1,0.7,0.3
		C186.8,183,186.6,183.4,186.6,183.7z"/>
	<path class="st0" d="M214.2,140.1c0.1-1.4-1.2-2.8-2.7-2.8c-1.4,0-2.7,1.2-2.7,2.6c-0.1,1.5,1,2.7,2.5,2.8
		C212.8,142.7,214.1,141.6,214.2,140.1z"/>
	<path class="st0" d="M152.2,209.9c2,0,3.7-1.7,3.7-3.6c0-2-1.7-3.6-3.7-3.6c-2,0-3.6,1.6-3.6,3.6
		C148.6,208.2,150.2,209.9,152.2,209.9z"/>
	<path class="st0" d="M31.1,78.2c0-1.3-1.3-2.7-2.6-2.7c-1.5-0.1-2.7,1.2-2.8,2.7c0,1.5,1.1,2.6,2.6,2.7
		C29.9,80.9,31.1,79.7,31.1,78.2z"/>
	<path class="st1" d="M29.9,104.4c2.3,2.9,5.4,3.7,8.9,3.6c5.1-0.3,8.1-3.4,8.1-8.4c0-0.3,0-0.6,0-0.9c0.2-2.8-1.2-4.7-3.5-6
		c-3.5-2-7.1-2-10.7-0.3c-2,1-3.5,2.6-3.9,4.9c-0.2,1.2-0.1,2.4-0.1,3.7C28.7,102.2,29.1,103.4,29.9,104.4z M38.9,106.7
		c-4.5,0.2-8.2-1.7-8.7-4.5c4.1,4,11.2,3.8,15,0C45.3,104.2,42,106.5,38.9,106.7z M32.4,94.1c3-2.1,7.7-2.2,10.8-0.1
		c3.3,2.2,3.3,6,0,8.3c-1.6,1.1-3.4,1.6-5.3,1.5c-2.1,0-4-0.5-5.6-1.7C29.3,99.9,29.3,96.3,32.4,94.1z"/>
	<path class="st1" d="M39.7,102.4c1.6-0.3,3-1,4-2.3c0.5-0.6,0.6-1.2,0-1.9c-1.5-2-3.7-2.4-5.9-2.6c-2.1,0.1-3.9,0.6-5.4,2
		c-1.2,1.2-1.3,1.9,0,3C34.5,102.5,37,102.9,39.7,102.4z M39,96.9c0.4-0.1,1,0.2,1.4,0.4c0.7,0.4,1.3,0.8,2,1.3
		c0.2,0.1,0.3,0.4,0.4,0.7c-0.3,0.1-0.6,0.3-1,0.3c-0.4,0-0.9,0-1.3-0.2c-0.5-0.1-1-0.4-1.5-0.6c0-0.1,0-0.2,0-0.2
		c-0.3,0.1-0.6,0.2-0.8,0.1c-0.2-0.1-0.5-0.5-0.5-0.5C38.1,97.7,38.4,97.1,39,96.9z M33.2,98.7c0.2-0.4,0.5-0.8,0.9-1.2
		c0.2-0.1,0.7-0.2,0.8,0c0.4,0.4,0.9,0.9,1.1,1.5c0.2,0.4,0.2,0.6,0.7,0.5c0.3,0,0.6,0.2,0.9,0.3c-0.2,0.3-0.3,0.6-0.6,0.8
		c-0.4,0.3-0.8,0.6-1,0.8c-0.3,0-0.3,0-0.4,0c-0.8-0.6-1.6-1.1-2.4-1.7C33,99.4,33,98.9,33.2,98.7z"/>
	<path class="st1" d="M66.8,9.7c-3.1-3-6.9-3.8-11-2.3c-4.1,1.6-6.5,4.8-6.7,9.3C48.8,24.2,56,29.5,63.2,27c0.5-0.2,1.3-0.1,1.6,0.2
		c3.4,3.4,6.7,6.9,10,10.4c-3,5-3.3,10.1-0.8,15.3c0.2,0.4-0.2,1.2-0.5,1.5c-3,3-6.2,5.9-9.2,8.9c-0.9,0.9-1.6,1.1-2.9,0.6
		c-4.1-1.6-8.6-0.4-11.5,2.9c-2.9,3.3-3.4,7.9-1.5,11.6c2.6,4.9,8.3,7,13.4,4.9c5-2.1,7.6-7.7,5.8-13c-0.3-1-0.3-1.6,0.6-2.3
		c3.2-2.9,6.3-5.9,9.4-8.9c0.8-0.8,1.4-0.8,2.3-0.3c5.1,2.7,10.2,2.6,15-0.4c4.8-3,7-7.6,6.7-13.3c-0.1-1.1,0.3-1.4,1.2-1.7
		c2.6-0.9,5.1-1.8,7.7-2.8c1.1-0.4,1.8-0.3,2.6,0.6c3.4,3.5,9.2,4,13.2,1.2c4-2.8,5.6-8,3.8-12.5c-1.9-4.6-6.4-7.2-11.3-6.5
		c-4.8,0.7-8.4,4.6-8.8,9.6c-0.1,1-0.3,1.5-1.3,1.8c-2.7,0.9-5.3,1.9-8,2.9c-0.8,0.3-1.3,0.3-2-0.5c-4.5-5.8-11.7-7.5-18.3-4.3
		c-1,0.5-1.5,0.3-2.1-0.4c-2.8-3-5.6-5.9-8.4-8.7c-0.9-0.9-1-1.5-0.6-2.7C70.8,16.7,70,12.8,66.8,9.7z M89.8,38
		c1.2-0.5,2.7,0.2,3.1,1.4c0.4,1.1-0.2,2.6-1.3,3.1c-1.2,0.5-2.7-0.1-3.2-1.3C88,39.8,88.5,38.5,89.8,38z"/>
	<path class="st1" d="M92.8,81.2c3.8,3.3,9.7,2.9,13-0.9c3.4-3.9,3.1-9.7-0.7-13.1c-2.2-2-4.8-2.6-7.6-2.3c-0.5-1.1-1-2.2-1.6-3.3
		c-1.2,0.5-2.4,1-3.6,1.6c0.1,0.4,0.1,0.6,0.3,0.8c1,1.6,0.7,2.7-0.7,4.2C88.3,71.9,88.9,77.8,92.8,81.2z"/>
	<path class="st1" d="M86.9,27.8c1.4,0.1,2.6,0.3,3.9,0.4c0.1-0.2,0.2-0.3,0.2-0.4c0.3-3.2,0.7-6.3,1-9.5c0.1-0.8,0.3-1.3,1.2-1.6
		c3-1.2,4.5-4,4-7.2c-0.4-2.9-2.9-5.1-5.9-5.4c-2.8-0.3-5.7,1.5-6.7,4.2c-1.1,2.9-0.2,6,2.4,7.7c0.8,0.5,1,1.1,0.9,2
		C87.5,21.3,87.2,24.5,86.9,27.8z"/>
	<path class="st1" d="M67.2,91.4c-0.1,0-0.2,0-0.3,0c-1.1,1.9-2.2,3.7-3.4,5.7c4.7,2.7,9.2,5.3,13.8,8c1.1-2,2.2-3.8,3.3-5.7
		c-1-0.6-1.8-1.1-2.6-1.5C74.4,95.7,70.8,93.6,67.2,91.4z"/>
	<path class="st1" d="M97.9,163.3c0.6-13.9-7.4-25.9-20.3-31.1c-0.5-0.2-1.2-0.4-1.3-0.8c-1-2.9-2.9-5-5.5-6.6
		c2.9-5.1,5.8-10,8.7-15.1c-7-4.1-13.9-8-20.9-12c-7.4,12.7-14.6,25.3-21.9,37.9c7,4.1,13.9,8,20.8,12c0.9-1.4,1.6-2.7,2.4-4
		c6.1,2.8,9.9,2.1,14.8-2.8c9.5,3.3,15.9,15,13.9,25.2C86.1,178,76.2,185.7,64.2,185c-11.2-0.7-19.3-9.6-20.6-17.7
		c2.4,1.4,4.8,2.7,7.3,4.1c0.8-1.3,1.5-2.6,2.3-3.9c-10.4-6-20.6-11.9-30.8-17.8c-0.2-0.1-0.5-0.2-0.8-0.4c-0.7,1.3-1.5,2.6-2.2,3.9
		c4.4,2.6,8.7,5,12.9,7.4c1.1,0.6,1.5,1.2,1.5,2.5c0.4,9.4,4.2,17.2,11.3,23.3c1.7,1.4,3.5,2.6,5.3,3.9c-8.4,6.2-13.3,12.8-14,18.9
		c19.7,0,39.3,0,59.1,0c-2.3-8.2-7.1-14.4-14.4-18.9c0.5-0.3,0.7-0.5,1-0.6C91.8,183.6,97.4,174.8,97.9,163.3z M65.9,138.5
		c-2.3,0-4.2-1.7-4.2-4.1c0-2.3,1.8-4,4.1-4c2.3,0,4.1,1.7,4.1,4C69.9,136.7,68.2,138.5,65.9,138.5z"/>
	<path class="st1" d="M37.5,150.3c-0.2,1,0.1,1.6,1,2c1.3,0.7,2.6,1.5,3.9,2.2c0.5,0.2,1.2,0.2,1.7-0.1c1.2-0.8,2.4-1.8,3.6-2.7
		c1.3-1,2.5-2.6,4.3-0.7c0.6-1,1-1.8,1.5-2.7c-5.1-3-10.1-5.9-15.3-8.8c-0.5,0.9-1,1.7-1.5,2.7c2.1,0.5,1.8,2,1.6,3.5
		C37.8,147.2,37.7,148.8,37.5,150.3z"/>
	<path class="st1" d="M146.7,24c-2.9,5.1-6,10.1-8.9,15.2c-4,7-8,13.9-12,20.9c0,1.1,0,2.1,0,3.2c1.4,2.8,3.7,4.2,6.9,4.2
		c16.4,0,32.9,0,49.3,0c5.9,0,8.5-4.6,5.8-9.8c-0.2-0.3-0.4-0.7-0.6-1c-6.4-10.8-12.8-21.7-19.1-32.5c-0.4-0.6-0.6-1.4-0.6-2.1
		c-0.1-3.2-0.1-6.4,0-9.6c0-0.7,0.3-1.4,0.6-2.1c1.2-2,2.5-4,3.6-6c0.9-1.6,0.3-2.7-1.6-2.7c-8.6,0-17.2,0-25.8,0
		c-1.8,0-2.5,1.3-1.5,2.8c1,1.6,2,3.3,3,4.9c0.9,1.4,1.4,2.8,1.3,4.5c-0.1,2.8,0,5.5,0,8.3C147.2,22.8,147,23.5,146.7,24z
		 M149.4,26.2c0.8-1.3,1.2-2.6,1.2-4.2c-0.1-2.9-0.1-5.9,0-8.8c0.1-1.9-0.3-3.4-1.4-4.9c-0.7-0.9-1.2-2-2-3.2c6.9,0,13.5,0,20.4,0
		c-0.9,1.4-1.7,2.7-2.4,4c-0.5,0.9-0.8,2-0.9,3c-0.1,3.6-0.1,7.3,0,10.9c0,0.8,0.2,1.7,0.6,2.4c6.4,11,12.8,21.9,19.3,32.8
		c0.9,1.5,2.1,3,1,4.7c-1,1.6-2.8,1.5-4.5,1.5c-15.7,0-31.4,0-47.1,0c-4.5,0-5.7-1.8-3.4-5.7C136.6,47.8,143,37,149.4,26.2z"/>
	<path class="st1" d="M173.7,46.9c-0.2-0.3-0.9-0.5-1.3-0.4c-3.8,0.7-7.7,0.6-11.4-0.3c-5.2-1.3-10.4-2.8-15.6-4.3
		c-0.9-0.3-1.5-0.2-2,0.8c-2.4,4.2-4.9,8.4-7.4,12.5c-1.1,1.9-2.2,3.7-3.4,5.8c16.6,0,32.9,0,49.5,0
		C179.2,56.1,176.5,51.5,173.7,46.9z"/>
	<path class="st1" d="M157.6,21.2c-0.3-0.2-0.7,0-1.1,0c-0.1-0.1-0.1-0.2-0.2-0.4c-0.8,0.5-1.8,0.8-2.5,1.5
		c-0.2,0.2,0.2,1.7,0.4,1.7c1.3,0.2,2.7,0.3,4,0.2c0.3,0,0.8-1.1,0.7-1.6C158.9,21.9,158.2,21.5,157.6,21.2z"/>
	<path class="st1" d="M154.3,16.3c1.3,0.2,2.7,0.2,4,0.1c0.3,0,0.8-1,0.7-1.4c-0.2-0.6-0.8-1.1-1.3-1.5c-0.3-0.2-0.8-0.1-1.1-0.1
		c-1.3,0-2.7-0.2-2.9,1.4C153.7,15.3,154,16.3,154.3,16.3z"/>
	<path class="st1" d="M152.3,213.3c3.8-0.1,6.9-3.1,6.9-6.9c0-3.8-3.1-7-6.9-7c-3.9,0-7,3.1-7,7
		C145.3,210.1,148.5,213.3,152.3,213.3z M152.2,202.7c2,0,3.7,1.6,3.7,3.6c0,1.9-1.7,3.6-3.7,3.6c-2,0-3.7-1.7-3.6-3.7
		C148.6,204.3,150.2,202.7,152.2,202.7z"/>
	<path class="st1" d="M164.3,199.9c3.1,0,5.5-2.3,5.5-5.4c0-3.1-2.4-5.5-5.4-5.5c-3,0-5.5,2.4-5.6,5.4
		C158.8,197.4,161.3,199.9,164.3,199.9z M164.5,192.2c1.1,0,2.1,1.1,2.1,2.2c0,1.1-1,2.1-2.1,2.2c-1.2,0-2.2-1-2.2-2.2
		C162.2,193.2,163.3,192.2,164.5,192.2z"/>
	<path class="st1" d="M84.2,128.7c2.2,1.6,5.5,1.4,7.8-0.4c2.2-1.7,3.2-4.8,2.1-7.4c-1.9-4.5-4.1-9-6.3-13.8
		c-2.2,4.9-4.4,9.4-6.3,14C80.4,123.8,81.6,126.9,84.2,128.7z"/>
	<path class="st1" d="M124,126.5c2.8,2.8,7,2.8,9.9,0c4.3-4.3,8.6-8.6,12.9-12.9c2.4-2.4,2.6-6.1,0.7-8.9c-0.6-0.8-1.2-1.2-2.2-1.1
		c-14.5,0-29,0-43.6,0c-1.3,0-2.7,0-4,0c0,0.1-0.1,0.2-0.1,0.3c1.8,0.8,3.6,1.7,5.3,2.6c0.9,0.5,1.9,0.9,2.7,1.7
		C111.7,114.2,117.8,120.4,124,126.5z"/>
	<path class="st1" d="M126.3,94.2c0.4,0.2,1.2,0.2,1.5,0c0.8-0.5,1.4-1.3,2-1.9c0.2-0.2,0.3-0.6,0.4-0.7c0-1.1-1-1.7-1.7-1.1
		c-0.9,0.7-1.6,1.5-2.3,2.3C126,93.1,126,94,126.3,94.2z"/>
	<path class="st1" d="M119.9,86.7c0.9-0.7,1.8-1.6,2.5-2.5c0.5-0.7-0.1-1.6-1-1.6c-0.1,0-0.3,0-0.4,0.1c-0.9,0.9-1.8,1.7-2.6,2.7
		c-0.2,0.2,0,1,0.3,1.2C118.9,86.8,119.6,86.9,119.9,86.7z"/>
	<path class="st1" d="M122.4,90.4c0.3,0.3,1.1,0.3,1.4,0.1c0.8-0.6,1.5-1.4,2.2-2.2c0.2-0.2,0.2-0.4,0.4-0.8
		c-0.2-0.3-0.4-0.7-0.6-0.8c-0.4-0.1-1-0.1-1.3,0.1c-0.8,0.7-1.6,1.4-2.2,2.2C122.1,89.3,122.2,90.1,122.4,90.4z"/>
	<path class="st1" d="M102.5,112.4c4.3,4.2,8.4,8.6,12.8,12.7c3.2,3.1,5.8,7.1,10.4,8.4h6.4c2-0.6,3.8-1.6,5.3-3.1
		c4.5-4.4,9-8.8,13.4-13.4c4.5-4.7,4.5-12-0.1-16.6c-9.3-9.4-18.7-18.7-28-28c-1.7-1.7-3-1.6-4.7,0c-9.6,9.6-19.3,19.3-28.9,28.9
		c-1.6,1.6-1.3,3.6,0.8,4.6c3.7,1.8,7.3,3.5,11,5.3C101.3,111.5,102,111.9,102.5,112.4z M90.7,103.5c9.9-9.9,19.7-19.7,29.7-29.7
		c2.7,2.7,5.4,5.5,8.2,8.2c6.4,6.4,12.8,12.8,19.2,19.2c3.2,3.2,4.5,6.7,2.9,11c-0.4,1.2-1.3,2.3-2.2,3.2
		c-4.2,4.3-8.5,8.6-12.8,12.9c-3.9,3.8-9.7,3.8-13.5-0.1c-5.4-5.4-10.9-10.7-16.2-16.3c-2.2-2.3-4.9-3.6-7.7-4.9
		C95.7,105.9,93.2,104.7,90.7,103.5z"/>
	<path class="st1" d="M214.2,57.9c0,1.5-1.3,2.8-2.8,2.7c0,0,0,0,0,0C212.9,60.7,214.2,59.4,214.2,57.9c0-1.4-1.2-2.6-2.6-2.7
		c0,0,0,0,0,0C212.9,55.3,214.2,56.6,214.2,57.9z"/>
	<path class="st1" d="M190.1,108c0,0.9-0.3,1.4-1.2,1.7c-4.6,1.4-9.1,3-13.7,4.4c-0.1,0-0.3,0.1-0.5,0.1c0.2,0,0.3,0,0.5-0.1
		c4.6-1.4,9.1-3,13.7-4.4C189.8,109.4,190.1,109,190.1,108c0-2.9,0-5.8,0-8.6c0,0,0,0,0,0C190.1,102.3,190,105.1,190.1,108z"/>
	<path class="st1" d="M192.8,85.5c4.4-2.5,8.8-5,13.2-7.6c0.4-0.3,0.7-0.9,0.9-1.4c0.6-1,1.2-2.1,1.7-3.1c0.3-0.6,0.8-1.2,0.8-1.8
		c0.1-1.1,0-2.2,0-3.4c0.1-2.2,0.1-3.9-2.3-5.5c-3.1-2-3-6.7-0.3-9.3c1.2-1.2,2.7-1.8,4.3-1.9c-1.5,0.1-3,0.7-4.3,1.9
		c-2.7,2.6-2.8,7.3,0.3,9.3c2.4,1.5,2.3,3.3,2.3,5.5c0,1.1,0.1,2.3,0,3.4c-0.1,0.6-0.5,1.2-0.8,1.8c-0.6,1.1-1.1,2.1-1.7,3.1
		c-0.3,0.5-0.5,1.2-0.9,1.4C201.6,80.5,197.2,83,192.8,85.5c-0.5,0.3-1.1,0.4-1.7,0.3C191.7,85.8,192.3,85.7,192.8,85.5z"/>
	<path class="st1" d="M212.3,133.4c0-3.2,0-6.4,0-9.6c0,0,0,0,0,0C212.3,127,212.3,130.2,212.3,133.4
		C212.3,133.4,212.3,133.4,212.3,133.4z"/>
	<path class="st1" d="M211.5,137.3c1.4,0,2.7,1.4,2.7,2.8c-0.1,1.5-1.4,2.7-2.9,2.6c0,0,0,0,0,0c1.5,0.1,2.8-1,2.9-2.6
		C214.3,138.7,213,137.3,211.5,137.3C211.5,137.3,211.5,137.3,211.5,137.3z"/>
	<path class="st1" d="M214.3,81.1c0.3,0,0.6,0,0.8,0.2c0.3,0.2,0.6,0.3,0.9,0.5v0c-0.3-0.2-0.6-0.3-0.9-0.5
		C214.9,81.1,214.6,81.1,214.3,81.1z"/>
	<path class="st1" d="M212.5,119.1c1.2-0.7,2.3-1.3,3.5-2v0C214.8,117.8,213.7,118.4,212.5,119.1c-0.3,0.1-0.6,0.2-1,0.2
		C211.9,119.3,212.2,119.2,212.5,119.1z"/>
	<path class="st1" d="M208.7,81.2c0.4,0,0.8,0,1.1,0c0,0,0,0,0,0C209.4,81.2,209,81.2,208.7,81.2z"/>
	<path class="st1" d="M166.2,116c0.1-0.5-0.1-1.3-0.4-1.8c-3.1-4.4-6.3-8.8-9.5-13.1c-0.9-1.2-1-2.2,0-3.4c3.2-4.3,6.3-8.6,9.4-12.9
		c0.6-0.8,0.8-1.4,0.5-2.4c-0.7-2.4,0.6-4.6,2.9-5.5c0.6-0.2,1.1-0.3,1.7-0.3c-0.6,0-1.2,0.1-1.7,0.3c-2.3,0.8-3.6,3.1-2.9,5.5
		c0.3,1,0.1,1.7-0.5,2.4c-3.2,4.3-6.3,8.6-9.4,12.9c-0.9,1.2-0.9,2.2,0,3.4c3.2,4.3,6.4,8.7,9.5,13.1
		C166.1,114.7,166.3,115.5,166.2,116c-0.6,2.7,0.4,5,2.8,5.9c0.6,0.2,1.2,0.3,1.8,0.3c-0.6,0-1.2-0.1-1.8-0.3
		C166.6,121.1,165.5,118.7,166.2,116z"/>
	<path class="st1" d="M206,136.5c-1.6,2.7-1.2,6.3,1.2,8.3c1.3,1.1,2.8,1.6,4.4,1.6c-1.5,0-3.1-0.5-4.3-1.6
		C204.8,142.8,204.4,139.2,206,136.5c0.5-0.8,0.8-1.8,0.8-2.7c0.1-3.7,0.1-7.5,0-11.2c0-0.6-0.5-1.5-1.1-1.8
		c-4.2-2.6-8.5-5-12.9-7.5c-0.5-0.3-1.1-0.4-1.7-0.3c0.6,0,1.2,0.1,1.7,0.3c4.3,2.4,8.6,4.9,12.9,7.5c0.5,0.3,1,1.2,1.1,1.8
		c0.1,3.7,0.1,7.5,0,11.2C206.7,134.7,206.4,135.7,206,136.5z"/>
	<path class="st1" d="M171.3,113.1c-0.2,0-0.4,0-0.5,0C170.9,113.1,171.1,113.1,171.3,113.1C171.3,113.1,171.3,113.1,171.3,113.1z"
		/>
	<path class="st1" d="M188.9,89.2c0.9,0.3,1.2,0.7,1.1,1.6c-0.1,2.9,0,5.8,0,8.6c0,0,0,0,0,0c0-2.9,0-5.8,0-8.6
		C190.1,89.8,189.8,89.4,188.9,89.2c-4.2-1.3-8.3-2.7-12.4-4c-0.7-0.2-1.4-0.5-2.1-0.5c0.7,0,1.4,0.3,2.1,0.5
		C180.6,86.5,184.8,87.8,188.9,89.2z"/>
	<path class="st1" d="M196.9,106.2c0-2.3,0-4.6,0-6.9c0,0,0,0,0,0C196.9,101.6,196.9,103.9,196.9,106.2c0,1.3,0.5,2.2,1.9,2.2
		c0,0,0,0,0,0C197.5,108.4,196.9,107.6,196.9,106.2z"/>
	<path class="st1" d="M196.9,92.6c0-1.3,0.4-2.2,1.9-2.2c0,0,0,0,0,0C197.3,90.4,196.9,91.3,196.9,92.6c0,2.2,0,4.5,0,6.7
		c0,0,0,0,0,0C196.9,97.1,196.9,94.9,196.9,92.6z"/>
	<path class="st1" d="M164.1,97.8c1.6-2.2,3.1-4.5,4.8-6.5c0.4-0.5,1.3-0.7,2-0.7c-0.7,0-1.6,0.3-2,0.7
		C167.2,93.4,165.7,95.6,164.1,97.8c-0.8,1-1,2,0.1,2.9c0.3,0.3,0.7,0.4,1.1,0.4c-0.4,0-0.8-0.1-1.1-0.4
		C163.1,99.9,163.3,98.9,164.1,97.8z"/>
	<path class="st1" d="M141.2,145.6c7.9-4.5,8.9-7.4,6.9-16.3c-4.5,3-8.6,6.2-13.1,8.7c-6.7,3.7-13.7,6.9-20.5,10.2
		c-5.4,2.6-7.2,7.2-7.3,13.1c5.1-2.3,9.9-4.3,14.6-6.5C128.3,151.9,135,149.1,141.2,145.6z"/>
	<path class="st1" d="M121.1,183.8c6.9-3.2,14-6.2,20.6-10c7.7-4.5,8.4-7.1,6.5-15.6c-5.6,3.5-10.8,7.2-16.4,10.3
		c-5.8,3.2-11.9,5.7-17.7,8.7c-5.1,2.6-7.2,7.1-6.4,12.7C112.2,187.9,116.7,185.9,121.1,183.8z"/>
	<path class="st1" d="M115.1,144.3c2.8-1.1,5.5-2.6,8.9-4.3c-3.1-1.9-5.7-3.3-8.1-5c-2.6-1.8-4.9-3.8-8.7-6.7c0,3.5-0.3,6.3,0.1,9
		C107.6,141.1,112.5,145.3,115.1,144.3z"/>
	<path class="st1" d="M123.5,168.3c-2-1.2-3.9-2.2-5.8-3.4c-5.1-3.1-5.9-3-10.4,1.6C112.4,175.6,114.2,174.3,123.5,168.3z"/>
	<path class="st1" d="M143.7,178.6c-2.9-0.9-7.1,2-11.8,3.6c6.4,3,11.4,5.4,17.1,8C148.7,185.1,147.9,179.9,143.7,178.6z"/>
	<path class="st1" d="M144.8,155.5c0.7-1.4,0.4-3.6-0.3-5.1c-0.3-0.7-2.9-0.8-4.1-0.4c-2.5,0.9-4.7,2.4-7.9,4.1
		c3.3,1.4,5.6,2.9,8.1,3.4C141.9,157.8,144.2,156.6,144.8,155.5z"/>
	<path class="st1" d="M138.6,159.9c-5.9-0.8-10.4,2.9-15.3,5.1C129,165.4,133.6,162,138.6,159.9z"/>
	<path class="st1" d="M118.2,161.9c5.3,0.2,9.7-2.5,14.2-4.8C127,156.7,122.7,159.5,118.2,161.9z"/>
	<path class="st1" d="M108.2,206.2c4,0,7.8-0.9,11.3-3c3-1.7,5-4.4,6.6-7.4c1-2-0.4-4.5-2.7-4.8c-0.2,0-0.6,0.1-0.6,0.3
		c-0.1,0.2,0.1,0.5,0.2,0.6c0.2,0.2,0.6,0.3,0.8,0.5c0.7,0.5,1.4,1.2,1.2,2.2c-0.1,0.7-0.2,1.4-0.5,2c-1.8,3.6-4.7,5.8-8.3,7.2
		c-2.8,1.1-5.7,1.1-8.6,0.8c-1.3-0.1-1.8-0.8-1.9-2.2c0-0.4-0.1-0.8-0.2-1.2c0.1-0.1,0.2-0.4,0.3-0.6c0.2-0.2,0.4-0.5,0.6-0.6
		c0.4-0.2,0.8-0.3,1.3-0.3c2.5-0.4,4.8-1.2,7.1-2.2c2.7-1.1,4.9-3,7.3-4.5c0.2-0.1,0.3-0.5,0.4-0.8c-0.8-0.2-1.3,0-1.9,0.6
		c-1.1,0.9-2.2,1.9-3.4,2.7c-2.5,1.7-5.4,2.3-8.4,2.8c-1.1,0.2-2.2,0.4-3.2,0.8c-1,0.4-1.1,1.1-0.7,2c0,0.1,0.1,0.2,0.1,0.3
		c-1.2,0.8-0.9,2.8,0.1,3.7C106.1,205.8,107.1,206.2,108.2,206.2z"/>
	<path class="st1" d="M121.2,216h1.1c1-1.8,0.7-3.9-0.8-5.1c-1-0.8-2.1-1.1-3.4-1.2c-0.2,0-0.4,0.2-0.6,0.3c0,0.1,0,0.1,0.1,0.2
		c0.4,0.1,0.7,0.2,1.1,0.2c1.8,0.4,2.9,1.4,3,2.9c0.1,0.8,0,1.7-0.4,2.4C121.3,215.9,121.2,215.9,121.2,216z"/>
	<path class="st1" d="M110.2,212.6c1.2-0.9,2.6-1.5,4-2.2c0.3-0.2,0.7-0.4,1-0.6c0-0.1,0-0.2,0-0.2c-0.4-0.1-0.7-0.3-1.1-0.2
		c-1.8,0.4-3.4,1.1-4.8,2.2c-1.5,1.2-2.4,2.7-2.9,4.5h1.4C108.3,214.7,109,213.5,110.2,212.6z"/>
	<path class="st1" d="M126.6,212.8c2,0.9,4.2,0.8,6.2,0.1c3.1-1,5.5-2.9,7-5.9c0.9-1.9,1.5-3.8,1.1-5.9c-0.3-0.7-0.5-1.5-0.9-2.2
		c-0.7-1.6-2-2.7-3.2-3.8c-0.7-0.6-1.4-0.8-2.2-0.6c-0.7,0.2-1.4,0.5-2,0.9c-2.8,1.8-4.7,4.4-6.4,7.2c-1.2,1.9-2.1,3.9-2.1,6.1
		C124,210.7,124.9,212.1,126.6,212.8z M124.9,207.2c1-3.5,2.8-6.5,5.5-8.9c1.1-0.9,2.4-1.6,3.6-2.3c0.1-0.1,0.4-0.1,0.4-0.3
		c0.3-0.6,0.7-0.4,1.1-0.2c2.4,1.3,4.1,3.2,4.8,5.9c0.3,1.4,0.1,2.7-0.5,4c-1.5,3.6-4,6.1-7.9,7c-1.6,0.3-3.2,0.4-4.7-0.3
		C125.3,211.5,124.3,209.2,124.9,207.2z"/>
	<path class="st1" d="M108.9,200.2c-0.2,0.1-0.6,0.2-0.6,0.3c0,0.2,0.1,0.6,0.3,0.6c0.4,0.2,0.9,0.3,1.3,0.3
		c0.6-0.1,1.3-0.4,1.9-0.5c3-0.5,5.5-1.9,7.5-4.1c0.1-0.1,0.2-0.3,0.3-0.5c-0.1-0.1-0.1-0.1-0.2-0.2c-1.3,1.5-2.9,2.6-4.7,3.3
		c-1.8,0.7-3.7,1.3-5.6,1.4c0-0.1,0-0.1,0-0.2c0.2-0.1,0.3-0.3,0.6-0.5C109.2,200.2,109,200.1,108.9,200.2z"/>
	<path class="st1" d="M111,214.4c1-0.6,2-1.2,3-1.7c0,0-0.1,0-0.2,0c-1.2,0-2.2,0.7-3.2,1.3c-0.8,0.5-1.4,1.2-1.6,2.1h0.7
		C109.9,215.3,110.4,214.8,111,214.4z"/>
	<path class="st1" d="M118.6,213.1c-0.1-0.5-0.6-0.6-1-0.2c0.2,0.1,0.4,0.2,0.6,0.3c-0.4,0.7-0.7,1.3-1.1,2.1
		C118.1,215,118.8,213.8,118.6,213.1z"/>
	<path class="st1" d="M129.1,208.2c0.7,0.6,1.2,0.6,1.8,0.3c-0.3-0.2-0.6-0.3-0.9-0.5c-1.1-0.5-1.5-1.2-1.3-2.4
		c0.1-0.3,0.1-0.7,0.2-1c0.6-2,1.9-3.5,4-4.2c-0.5-0.3-0.9-0.2-1.3,0c-2.3,1.2-3.4,3.2-3.5,5.8C128.1,207,128.5,207.7,129.1,208.2z"
		/>
	<path class="st1" d="M136.1,205.7c0.9-1,1.2-2.3,1.3-3.6c0-0.6-0.1-1.2-0.9-1.6c0.7,2,0.2,3.5-0.8,5c-0.1,0.2-0.2,0.3-0.3,0.5
		c0.1,0,0.1,0.1,0.2,0.1C135.7,206,136,205.9,136.1,205.7z"/>
	<path class="st1" d="M108.5,6c1.5,0.5,3,0.4,4.5,0.3c4.1-0.4,7-2.6,9.2-5.9c0.1-0.1,0.1-0.2,0.2-0.3h-1.1c-1.6,3.2-4.1,5.1-7.7,5.3
		c-1.5,0.1-3,0.1-4.4-0.4c-1.4-0.5-2-1.3-1.8-2.8c0.1-0.7,0.3-1.4,0.5-2.1h-1.4c-0.2,0.5-0.3,1.1-0.4,1.7
		C105.6,3.8,106.5,5.3,108.5,6z"/>
	<path class="st1" d="M109,0c0,0.2-0.1,0.4-0.1,0.5c0,0.7,0.2,0.9,0.8,1c1.3,0.1,2.5-0.1,3.7-0.5c0.4-0.2,0.7-0.5,1.1-0.7
		c0-0.1-0.1-0.2-0.1-0.2c-1.6,0.4-3.1,1.2-4.7,0.7c0-0.1,0-0.2,0-0.3c0-0.2,0-0.4,0.1-0.5H109z"/>
	<path class="st1" d="M190.1,184.1c0.2,0,0.4,0,0.5-0.1c0.2-0.2,0.4-0.4,0.4-0.7c0-0.3-0.2-0.5-0.6-0.5c-0.2,0-0.5,0.1-0.7,0
		c-0.1,0-0.3-0.1-0.4-0.2c-0.2-0.5-0.5-1.1-0.7-1.6c0.2-0.1,0.4-0.2,0.5-0.3c0.3-0.2,0.5-0.5,0.3-0.9c-0.2-0.4-0.5-0.3-0.8-0.2
		c-0.7,0.4-1.3,0.2-1.8-0.4c0,0-0.1-0.1-0.1-0.1c-0.3-0.2-0.3-0.4-0.2-0.7c0.1-0.4,0.2-0.8,0.2-1.2c0-0.4-0.1-0.7-0.6-0.8
		c-0.5,0-0.6,0.3-0.7,0.7c0,0.4-0.1,0.8-0.2,1.3c-0.8-0.3-1.6-0.5-1.8-1.4c0-0.1-0.1-0.2-0.2-0.3c-0.2-0.3-0.3-0.5-0.7-0.3
		c-0.4,0.2-0.4,0.5-0.3,0.8c0.1,0.3,0.3,0.6,0.4,1c-0.4,0.2-0.7,0.5-1,0.7c-0.3-0.3-0.5-0.6-0.8-0.7c-0.3-0.1-0.8-0.2-1-0.1
		c-0.2,0.2-0.1,0.6,0.2,0.9c0.3,0.2,0.5,0.4,0.8,0.7c-0.3,0.4-0.5,0.8-0.7,1.2c-0.3-0.1-0.5-0.2-0.8-0.2c-0.2,0-0.5,0.1-0.5,0.2
		c-0.1,0.2,0,0.5,0.1,0.6c0.1,0.1,0.3,0.1,0.4,0.3c0.1,0.1,0.3,0.3,0.3,0.5c0,0.9,0.1,1.7,0.1,2.7c-0.5,0.2-1.4,0.2-1.5,1.1
		c0.6,0.6,1.2,0.2,1.9,0.1c0.2,0,0.5-0.1,0.6,0.1c0.4,0.4,0.7,0.8,1.1,1.3c-0.2,0.3-0.4,0.5-0.6,0.8c-0.3,0.3-0.3,0.7,0,1
		c0.2,0.1,0.6,0,0.9-0.2c0.2-0.1,0.3-0.3,0.5-0.4c0.5-0.5,0.7-0.4,1.1,0.2c0.2,0.3,0.3,0.7,0.5,0.9c0.2,0.2,0.6,0.2,0.9,0.2
		c0-0.3,0.1-0.5,0.1-0.8c0-0.2-0.2-0.4-0.3-0.6c0.3-0.1,0.6-0.2,0.9-0.4c0.4-0.2,0.7-0.1,0.9,0.3c0.1,0.3,0.3,0.5,0.5,0.7
		c0.2,0.1,0.4,0.1,0.6,0.1c0.1,0,0.2-0.3,0.2-0.5c-0.1-0.4-0.2-0.8-0.3-1.2c0-0.1-0.1-0.3-0.1-0.4c0.2-0.3,0.5-0.6,0.8-0.8
		c0.1-0.1,0.5,0.1,0.7,0.2c0.5,0.3,0.9,0.5,1.4,0c0-0.5-0.3-0.8-0.7-1.1c-0.5-0.3-0.5-0.7-0.4-1.2
		C189.4,184.1,189.8,184.2,190.1,184.1z M184.4,187.2c-0.4,0-0.8-0.1-1.2-0.3c-0.5-0.3-0.9-0.6-1.3-0.9c-0.1-0.1-0.3-0.2-0.3-0.4
		c-0.5-1.7-0.6-3.3,0.5-4.8c0.9-1.2,2-1.4,3.4-0.7c0.9,0.5,1.6,1.2,2.1,2C188.6,184.5,187,187.2,184.4,187.2z"/>
	<path class="st1" d="M190.8,201.4c0.3,0,0.7-0.1,0.8-0.3c0.2-0.3,0-0.7-0.4-0.8c-0.2-0.1-0.5-0.1-0.7-0.2c-0.2-0.1-0.4-0.2-0.4-0.3
		c-0.1-0.4-0.2-0.8-0.1-1.2c0-0.2,0.4-0.3,0.7-0.5c0.3-0.2,0.5-0.4,0.4-0.8c-0.2-0.4-0.5-0.3-0.8-0.2c-0.6,0.2-1.2,0.4-1.8-0.1
		c0,0-0.1,0.1-0.1,0.1c0.1,0.3,0.2,0.7,0.3,1c0.7,1.3,0.3,3.2-0.8,4.3c-1,1-2.4,1.1-3.8,0.3c-0.6-0.4-1.2-0.8-1.8-1.1
		c-0.6-0.3-0.8-0.7-1-1.3c-0.6-2.5,1.4-4.7,3-5.3c0.3-0.1,0.8-0.1,1.1,0c0.5,0.2,0.8,0.6,1.2,0.9c0.4,0.3,0.7,0.6,1,0.9
		c0.2,0.2,0.5,0.1,0.6-0.1c0.3-0.4,0.5-0.8,0.8-1.2c0.3-0.3,0.3-0.7,0.1-1c-0.3-0.3-0.6-0.2-0.9,0.1c-0.5,0.5-0.9,0.5-1.3,0
		c0-0.1-0.1-0.1-0.2-0.1c-0.4-0.3-0.6-0.6-0.5-1.2c0.1-0.2,0.1-0.5,0-0.6c-0.1-0.2-0.4-0.4-0.6-0.6c-0.2,0.2-0.5,0.4-0.6,0.6
		c-0.1,0.3-0.1,0.6-0.1,0.9c-0.4,0.1-0.8,0.1-1.1,0.2c-0.5,0.1-0.7-0.3-1-0.5c-0.2-0.1-0.5-0.1-0.6,0c-0.1,0.1-0.1,0.4-0.1,0.6
		c0,0.1,0.1,0.2,0.1,0.3c0,0.2,0,0.4-0.1,0.6c-1.1,1.4-1.1,1.4-2.6,0.4c-0.3-0.2-0.6-0.3-0.9,0.1c-0.3,0.4-0.1,0.7,0.3,0.9
		c0.5,0.3,1,0.5,1.5,0.8c-0.2,0.4-0.3,0.7-0.5,1.1c-0.4-0.2-0.8-0.5-1.2-0.6c-0.2-0.1-0.5,0-0.6,0.2c-0.1,0.1,0,0.5,0.1,0.6
		c0.2,0.2,0.6,0.3,0.9,0.4c0.4,0.1,0.7,0.2,0.7,0.7c0,0.5-0.2,0.7-0.6,0.8c-0.4,0.1-0.7,0.3-0.6,0.8c0.1,0.4,0.4,0.6,0.9,0.4
		c0.5-0.1,0.8,0.1,1,0.5c-0.4,0.3-0.8,0.5-1.1,0.8c-0.2,0.1-0.3,0.4-0.3,0.6c0,0.2,0.2,0.4,0.4,0.4c0.7,0.2,1.7-0.7,1.6-1.5
		c0-0.1,0.1-0.3,0.1-0.3c0.3,0.4,0.5,0.9,0.7,1.2c0.3,0.4,0.7,0.7,1.1,1c-1,0.5-1.3,1-1.1,1.9c1,0.1,1.3-0.4,1.2-1.8
		c1.4,0.1,2,0.5,2.4,1.8c0,0.1,0.1,0.2,0.1,0.4c0.1,0.3,0.2,0.7,0.6,0.5c0.2-0.1,0.4-0.5,0.5-0.8c0.1-0.3-0.1-0.7-0.1-1.1
		c0-0.1,0.1-0.4,0.2-0.4c0.7-0.5,1.4-0.8,2.1,0c0.1,0.1,0.2,0.2,0.3,0.2c0.3,0,0.5-0.1,0.8-0.1c-0.1-0.2-0.1-0.5-0.2-0.7
		c-0.2-0.3-0.5-0.5-0.8-0.7c0.3-0.6,0.7-1.3,1-1.9C190.3,201.2,190.5,201.4,190.8,201.4z"/>
	<path class="st1" d="M182.4,199c-0.4,0.2-0.6,0.7-0.4,1c0.2,0.4,0.9,0.6,1.3,0.4c0.3-0.2,0.5-0.6,0.3-1
		C183.4,198.9,182.9,198.7,182.4,199z"/>
	<path class="st1" d="M185.2,197.1c-0.2-0.4-0.8-0.6-1.1-0.4c-0.3,0.2-0.4,0.6-0.2,1c0.2,0.4,0.6,0.4,1,0.3
		C185.2,197.8,185.4,197.5,185.2,197.1z"/>
	<path class="st1" d="M187.4,200.4c0.2-0.2,0.4-0.7,0.3-1c-0.1-0.2-0.6-0.3-0.9-0.4c-0.4,0.3-0.5,0.7-0.3,1.1
		C186.6,200.4,187.2,200.7,187.4,200.4z"/>
	<path class="st1" d="M185.5,201.7c0.1,0,0.1-0.4,0-0.5c-0.2-0.1-0.6-0.3-0.7-0.2c-0.2,0.1-0.3,0.5-0.4,0.7c0,0.1,0.1,0.1,0.1,0.2
		C184.8,201.8,185.2,201.8,185.5,201.7z"/>
	<path class="st1" d="M187,197.4c-0.2-0.1-0.5-0.2-0.8-0.3c-0.1,0.3-0.2,0.6-0.1,0.7c0.2,0.1,0.5,0.2,0.7,0.2
		C186.9,197.9,186.9,197.6,187,197.4z"/>
	<path class="st1" d="M185,184.6c-0.3,0.2-0.5,0.6-0.3,0.9c0.2,0.3,0.5,0.5,0.9,0.3c0.4-0.2,0.4-0.6,0.2-0.9
		C185.7,184.6,185.4,184.5,185,184.6z"/>
	<path class="st1" d="M182.9,181.8c-0.4,0.2-0.4,0.5-0.2,0.9c0.2,0.4,0.5,0.4,0.8,0.3c0.4-0.2,0.5-0.5,0.3-0.9
		C183.6,181.7,183.3,181.6,182.9,181.8z"/>
	<path class="st1" d="M182.9,184.4c0,0.4-0.4,0.9,0.2,1.1c0.2,0.1,0.6-0.1,0.6-0.2C183.9,184.6,183.4,184.6,182.9,184.4z"/>
	<path class="st1" d="M186,182.5c-0.3,0.7-0.3,0.7,0.6,1.1c0.1-0.3,0.2-0.6,0.1-0.8C186.6,182.6,186.2,182.6,186,182.5z"/>
	<path class="st1" d="M184.8,181.4c0.2-0.2,0.3-0.5,0.5-0.8c-0.3-0.1-0.5-0.1-0.8-0.2c0,0.3-0.1,0.6-0.1,0.9
		C184.4,181.4,184.8,181.5,184.8,181.4z"/>
	<path class="st1" d="M28.6,213.7c0.5-4.7,0.6-9.5,0.5-14.2c-0.1-9.5-0.4-19-0.6-28.5c-0.1-6.1-1.1-7.5-7-8.3
		c-2.5-0.3-5-0.1-7.5-0.2c-0.9,0.9-1.8,1.8-2.7,2.7c0.4,0.1,0.8,0.2,1.2,0.2c3.5-0.6,7,0.1,10.4,0.4c1.5,0.2,2.3,0.9,2.4,2.4
		c0.1,2,0.4,4,0.5,6c0.2,5.4,0,10.7,0.4,16.1c0.5,7.5,0.2,14.9-0.3,22.4c-0.1,1.5-0.6,2.7-1.5,3.5H28
		C28.3,215.3,28.5,214.5,28.6,213.7z"/>
	<path class="st1" d="M19.7,215c0.6-0.1,1.2-0.7,1.8-1c-0.1-0.2-0.2-0.4-0.3-0.6c-0.5,0-1,0.1-1.5,0.1c-2.4,0.3-4.8,0.7-7.3,0.8
		c-4.2,0.3-8.4-0.2-12.5-0.7v1.5C6.5,215.9,13.1,215.7,19.7,215z"/>
	<path class="st1" d="M22.4,171.1c-0.5-0.7-1.2-1.4-2-1.8c-3-1.4-6.2-1.8-9.5-1.5c-3.6,0.3-7.2,1.8-10.9,1.3v1.2
		c2,0.2,3.9,0.2,5.9-0.3c3.3-0.9,6.6-1.2,10.1-0.7c3.2,0.4,5.8,1.7,6.7,5.1c0.6,2.1,1,4.4,1,6.6c-0.1,4.5-0.6,9-0.7,13.4
		c-0.1,4.7,0.1,9.5,0.2,14.2c0,1.4-0.2,2.7-1.8,3.2c-0.2,0.1-0.5,0.4-0.5,0.6c0,0.2,0.4,0.5,0.6,0.5c0.6-0.2,1.5-0.3,1.7-0.7
		c0.6-1.5,1.3-3.1,1.4-4.8c0.2-2.6,0.2-5.2,0-7.7c-0.3-5.7-0.5-11.4,0.4-17C25.6,178.5,24.8,174.6,22.4,171.1z"/>
	<path class="st1" d="M0.8,204.8c0.4,1.8,2,2.7,3.8,2.6c2.1,0,3.8-1,5.3-2.5c3.5-3.6,4.6-8,4.8-12c0-4-0.7-4.9-3-5.5
		c-2.9-0.7-5.2,0.5-7.3,2.3C-0.3,193.7-0.4,199.9,0.8,204.8z M4.5,191.5c1.1-1.1,2.4-2.1,3.8-2.7c2.5-1.2,5.3,0.5,5.2,3.2
		c-0.4,4.8-1.4,9.2-5.2,12.6c-0.5,0.4-1,0.8-1.5,1c-2.9,1.4-4.5,0.5-5-2.7C1.1,198.6,1.5,194.7,4.5,191.5z"/>
	<path class="st1" d="M13.2,162.3c-3,0.3-6,0.6-8.9,0.9c-0.9,0.1-1.8,0.2-2.6,0.5c-0.5,0.2-0.8,1-1.1,1.5c0.5,0.3,1,0.9,1.5,0.9
		c2,0,4-0.2,6-0.5c1.1-0.1,2.2-0.4,3.3-0.6c0.9-0.9,1.8-1.8,2.7-2.7C13.7,162.4,13.4,162.3,13.2,162.3z"/>
	<path class="st1" d="M15.1,178.2c0-1.3-0.6-1.9-2.1-1.9c-2,0-2.9,0.8-2.9,2.7c0,1.7,0.6,2.5,1.9,2.4
		C13.6,181.4,15.1,179.8,15.1,178.2z"/>
	<path class="st1" d="M14.6,204.3c0,1.1,0.6,1.7,1.7,1.7c1.3,0,2.3-1.2,2.3-2.6c0-1-0.7-1.8-1.6-1.8C15.9,201.6,14.6,203,14.6,204.3
		z"/>
	<path class="st1" d="M0,175.1L0,175.1C0,175.2,0,175.2,0,175.1C0,175.1,0,175.1,0,175.1z"/>
	<path class="st1" d="M5.2,182.5c-0.4-0.4-0.8-0.7-1.3-1.2c-0.2,0.9-0.4,1.5-0.6,2.2c0.1,0.1,0.3,0.1,0.4,0.2
		C4.2,183.4,4.7,183,5.2,182.5z"/>
	<path class="st1" d="M19.4,184.1c-0.6,0.1-1.3,0.2-1.9,0.2c0,0.2,0,0.4,0,0.6c0.6,0,1.3,0,1.9,0C19.4,184.7,19.4,184.4,19.4,184.1z
		"/>
	<path class="st1" d="M22.3,1.1c-1.1,0.3-2.4,0.6-3.5,0.5C14.2,1.2,9.6,2.6,5,1.1C3.4,0.6,1.7,0.7,0,0.5v2.2c1,0,2.1,0.1,3.1,0.1
		C4,2.9,5,3,5.5,3.5c1,0.9,2.1,1.3,3.4,1.3c4.2-0.2,8.4-0.3,12.6-0.6C24.8,4,27,2.6,28,0h-3.4C24,0.5,23.2,0.9,22.3,1.1z"/>
	<path class="st1" d="M208.4,2.4c2.5,0.1,5.1,0.2,7.6,0.3V0.5c-0.2,0-0.5,0-0.7-0.1c-1.5-0.2-2.9-0.3-4.4-0.5h-9.7
		C203.3,1.7,205.8,2.3,208.4,2.4z"/>
	<path class="st1" d="M205.9,215.3c-3.9-0.8-4.8-2.2-4.3-6.2c0-0.1,0.1-0.3,0.1-0.4c0.3-3.3,0.8-6.6,1-10c0.4-6.6,0.6-13.3,1.2-19.9
		c0.2-2.9,1.1-5.7,1.9-8.5c0.7-2.7,2.9-3.4,5.5-3.6c1.3-0.1,2.7-0.4,4-0.6c0-0.2,0.1-0.4,0.1-0.5c-0.4-0.4-0.8-1-1.3-1.1
		c-1.3-0.3-2.7-0.6-4.1-0.6c-2.7,0-5,1-6.2,3.6c-1.5,3.3-2.6,6.8-2.7,10.5c-0.3,5.8-0.5,11.5-0.9,17.3c-0.3,5.3-0.7,10.6-1.1,15.9
		c-0.1,1.8,0.4,3.1,1.7,4.4c0.2,0.2,0.3,0.3,0.5,0.4h9.7C209.2,215.8,207.6,215.6,205.9,215.3z"/>
	<path class="st1" d="M209,212.5c-4-0.6-4.8-1.6-4.6-5.7c0.7-10.3,1.5-20.6,2.3-30.9c0.3-3.9,3.6-6.4,7.5-5.8
		c0.6,0.1,1.2,0.2,1.8,0.3v-1.2c-0.4-0.1-0.9-0.1-1.3-0.3c-0.5-0.1-1-0.1-1.4-0.1c-4.1-0.2-7.3,2.5-7.7,6.6
		c-0.5,5.8-1,11.5-1.4,17.3c-0.4,5.2-0.7,10.5-0.9,15.7c-0.1,2.9,0.8,4,3.6,4.8c3,0.8,6.1,1.4,9.1,1.8v-1.5
		C213.7,213.3,211.3,212.9,209,212.5z"/>
	<path class="st1" d="M210.9,198.1c-1.3,0-2.3,1.2-2.2,2.8c0,1.1,0.5,1.8,1.7,1.8c1.3,0,2.3-1.1,2.3-2.5
		C212.7,198.9,212,198.1,210.9,198.1z"/>
	<path class="st1" d="M214.3,186.4c-0.3-0.3-0.8-0.9-1.4-1.1c-0.8-0.2-2,1.2-2,2.2c0,1,0.5,1.4,1.4,1.4
		C213.3,189,214.3,188,214.3,186.4z"/>
	<path class="st1" d="M216,175.2L216,175.2c-0.8-0.5-1.5-1.6-2.5-0.5c-0.2,0.3-0.2,1.3,0.1,1.5C214.7,176.8,215.3,175.9,216,175.2z"
		/>
	<path class="st1" d="M2.8,38.9c-1.6,0.7-2.6,1.9-2.8,3.2v1.2c0.1,0.6,0.3,1.2,0.6,1.8c1.1,2.1,3,3.3,5.3,3.7
		c0.9,0.2,1.9,0.3,2.8,0.5c0.8,0.1,1.2,0.6,1.4,1.4c0.2,0.9,0.5,1.8,1,2.5c2.3,3.3,7.5,6.6,12.9,4c1.2-0.6,2.4-0.5,3.4,0.6
		c0.5,0.6,1.2,1,1.9,1.3c4,2.3,8.1,2.7,10.4-2.3c0.2-0.5,0.8-0.8,1.3-1.2c0.7-0.5,1.5-1,2-1.6c0.6-0.7,1.2-1.2,2.3-1.1
		c2.1,0.2,4.2,0.3,6.3,0.3c2.8,0,5.4-0.9,7.5-2.9c1.8-1.8,2.1-4.1,0.8-6.2c-1.8-3-4.7-4-8-4c-2.1,0-4.1,0.1-6.2,0.3
		c-0.9,0.1-1.3-0.2-1-1.2c0.2-0.6,0.3-1.2,0.6-1.9c1.4-3.9,2.1-7.8,0.8-12c-1.1-3.4-3-5.8-6.6-6.4c-1.7-0.3-3.4-0.5-5.2-0.7
		c0.4-3.1-1-5.5-2.8-7.6c-1.8-2.1-4.9-2.2-6.9-0.4c-1.2,1.1-2.1,2.5-2.3,4.2c-0.1,1.1-0.1,2.2,0,3.3c0.1,1.9-1,3.1-2.3,4
		c-1.2,0.9-2.4,0.3-3.5-0.4c-1.1-0.7-2.2-1.7-3.4-2c-1.7-0.5-3.6-0.7-5.4-1c-2.9-0.4-4.5,0.6-5.4,3.3c-0.4,1.4-0.6,2.9-0.6,4.4
		c0,2.8,1.3,5.2,2.7,7.5C5.7,35.9,5.1,37.8,2.8,38.9z M6.4,32.2c-0.9-1.4-1.6-3.1-2-4.8C4.1,26,4.3,24.4,4.5,23c0.3-1.7,1-1.9,2.7-2
		c3.1-0.1,5.5,1.3,8,2.9c2.2,1.4,4.4,1.7,6.6,0.1c2.3-1.6,3.6-3.7,3.5-6.6c0-1.1,0-2.3,0.3-3.3c0.2-0.7,0.8-1.4,1.5-2
		c0.9-0.7,1.8-0.5,2.4,0.5c1.1,1.7,2.4,3.4,1.8,5.7c-0.1,0.3,0.5,1.1,1,1.3c2.2,1,4.4,1.7,6.9,2c2,0.2,3.3,1.4,4,3.4
		c1.3,3.7,1.2,7.3-0.3,10.9c-0.5,1.1-0.7,2.3-0.9,3.5c-0.3,2.7,1.3,4,3.9,3.1c2.9-1,5.8-1.1,8.7-0.2c1.2,0.4,2.3,0.9,2.9,2.2
		c1.3,2.9-0.2,4.9-3.7,5.7c-2.2,0.5-4.5,0.2-6.8,0.2c-0.8,0-1.5-0.1-2.3-0.1c-1.7,0-3,0.8-3.8,2.4c-0.7,1.4-1.4,2.9-2.6,3.9
		c-2.2,2-5.9,1.7-8.3-0.4c-0.5-0.5-1.1-1-1.7-1.4c-1.6-1-3.3-1-5.1-0.3c-4,1.5-6.6,0.8-9.4-2.4c-0.9-1-1.7-2-0.1-3.3
		c0-0.2-0.1-0.3-0.1-0.5c-0.4-0.1-0.8-0.1-1.3-0.2c-2.3-0.6-4.6-1.3-7-1.9c-1.4-0.4-2.3-1.3-2.7-2.6c-0.3-1-0.1-1.9,1.1-2.2
		C7.7,40.1,8.6,35.6,6.4,32.2z"/>
	<path class="st1" d="M23.5,43.6c3.5,0.2,5.6-2.7,4.4-6.3c-1.1-2.6-3.5-3.7-6.4-4c-1.6-0.2-2.6,0.6-3.1,2.1c-0.3,1-0.6,2-1,3
		c-0.3,0.9-0.2,1.6,0.4,2.4C19.3,42.6,21.2,43.5,23.5,43.6z M18.5,38.9c0.2-0.2,0.2-0.7,0.3-1c0.6-3.3,1.6-4.1,4.5-3.1
		c1.7,0.6,2.9,1.7,3.5,2.8c1.1,2.8-0.8,5.3-3.2,5c-2-0.2-3.6-0.9-5-2.2C18.2,39.9,17.8,39.4,18.5,38.9z"/>
	<path class="st1" d="M36,48.7c0.9-0.4,1.3-1.4,1-2.2c-0.5-1.1-2.3-1.9-3.6-1.4c-0.7,0.4-1.3,1.1-1,2.1C32.8,48.2,35,49.2,36,48.7z"
		/>
	<path class="st1" d="M37.7,33.8c1-0.4,1.1-1.3,0.8-2.1c-0.3-1-1.6-1.5-2.5-1.2c-1,0.3-1.4,1.2-1.1,2.1
		C35.2,33.5,36.7,34.2,37.7,33.8z"/>
	<path class="st1" d="M20.3,47.2c-1,0.4-1.3,1.1-0.9,2c0.4,1,1.8,1.6,2.8,1.2c0.9-0.4,1.2-1.2,0.8-2.1
		C22.5,47.2,21.4,46.8,20.3,47.2z"/>
	<path class="st1" d="M28.5,19.5c0.4,0.1,1.3-0.2,1.4-0.6c0.5-1,0.2-2-0.7-2.8c-0.3-0.3-0.7-0.6-1.3-1.1c-0.3,0.7-0.8,1.4-0.9,2.1
		C26.8,18.3,27.3,19.2,28.5,19.5z"/>
	<path class="st1" d="M36,55.9c0.1-0.3,0.4-0.9,0.3-1.5c-0.1-0.9-2-1.7-2.9-1.1c-0.6,0.4-1,1.2-1.1,1.9C32.3,56,34.5,56.5,36,55.9z"
		/>
	<path class="st1" d="M37.3,40.3c-0.5,0.6-0.8,1.4-1.2,2.1c0.7,1.1,2,1.8,2.9,1.3c0.5-0.3,0.9-1.1,0.9-1.7
		C39.9,41.3,37.7,39.9,37.3,40.3z"/>
	<path class="st1" d="M51.4,48c0.1-0.4,0.4-1,0.3-1.6c-0.2-0.8-1.8-1.4-2.6-1c-0.9,0.4-1.1,1.1-0.8,2C48.6,48.2,50,48.6,51.4,48z"/>
	<path class="st1" d="M12.8,31.9c0.9-0.3,1-1,0.7-1.8c-0.4-0.9-1-1.3-2-1c-0.8,0.3-1,1-0.7,1.7C11.1,31.7,11.8,32.3,12.8,31.9z"/>
	<path class="st1" d="M25.2,30.6c0.3,0.1,0.7-0.5,0.9-0.7c-0.5-1.4-3.1-2.2-3.8-1.3c-0.2,0.2-0.1,1,0,1.1
		C23.2,30.1,24.2,30.4,25.2,30.6z"/>
	<path class="st1" d="M28.9,26.3c0.3-0.5,0.9-1.4,0.7-1.6c-0.5-0.7-1.3-1.1-2-1.7c-0.2,0.1-0.3,0.1-0.5,0.2
		c-0.2,0.6-0.6,1.5-0.4,1.7C27.2,25.6,28.1,25.9,28.9,26.3z"/>
	<path class="st1" d="M12.2,41.6c-0.2-0.9-1.6-1.5-2.3-1c-0.4,0.3-0.6,0.9-1,1.7c1.1,0.5,1.9,0.8,2.7,1.2
		C11.8,42.8,12.3,42.1,12.2,41.6z"/>
	<path class="st1" d="M39.1,27.7c1-0.6,1.3-1.3,1-2.1c-0.3-0.7-0.9-1.2-1.7-0.9c-0.9,0.4-1.1,1.3-0.7,2
		C37.8,27.2,38.6,27.4,39.1,27.7z"/>
	<path class="st1" d="M184.8,164.2c4.5-1.3,5.5-3,5.5-7.8c0-1.2,0.1-2.5-0.1-3.7c-0.2-1-0.5-2.2-1.1-2.9c-3.5-3.2-7.9-3.6-12.4-3.6
		c0.6,0.6,1.3,0.9,2,1.1c2.8,0.8,5.7,1.4,8.3,2.5c2.5,1.1,2.6,3.1,0,4.2c-2.8,1.2-5.8,2.1-8.9,2.5c-6.3,0.8-12.6,0.6-18.5-2.2
		c-0.9-0.4-2.1-1.6-2.1-2.4c0-0.8,1.2-2.1,2.1-2.4c2.6-1,5.4-1.5,8.1-2.3c0.8-0.2,1.6-0.5,2.3-0.8c-0.1-0.2-0.1-0.4-0.2-0.6
		c-0.5,0-1-0.1-1.5-0.1c-1.6,0.2-3.2,0.5-4.7,0.8c-6.8,1.7-7.7,2.9-7.7,9.8c0,4.9,0.9,6.4,5.7,7.8
		C169.4,166.5,177.1,166.5,184.8,164.2z M157.5,155.1c10.5,4.4,20.8,4.3,31,0.1c0.9,5.1,0.2,6.4-4.5,7.7c-7,2.1-14.2,2.1-21.2,0.2
		C157.5,161.7,157,160.8,157.5,155.1z"/>
	<path class="st1" d="M164,153.5c-0.2-1.2-0.3-2-0.5-3c-1,0.4-2,0.9-3.5,1.6c7.3,4.9,21,3.4,26.2-0.1c-4.1-0.8-7.4-3.5-11.4-0.7
		c-0.8,0.5-2.3,0.5-3.3,0.1C168.1,150.1,166.9,150.3,164,153.5z"/>
	<path class="st1" d="M174.8,142.4c4.5-3.9,9-7.9,13.5-11.9c-1.3-1.3-2.3-2.3-3.5-3.5c-1.8,2-3.7,3.7-5.3,5.7
		c-0.8,0.9-1.1,2.2-1.8,3.5c0.1,0-0.5-0.2-1.1-0.5c-1.3,1.5-2.6,3-3.7,4.6c-0.4,0.6-0.2,1.6-0.3,2.3
		C173.3,142.6,174.3,142.8,174.8,142.4z"/>
	<path class="st1" d="M171.8,149.6c0.5,0.5,2.4,0.5,2.9,0c1.9-2.1-0.4-3.4-1.4-5.3C172,146.2,169.9,147.6,171.8,149.6z"/>
	<path class="st1" d="M192.8,113.3c4.3,2.4,8.6,4.9,12.9,7.5c0.5,0.3,1,1.2,1.1,1.8c0.1,3.7,0.1,7.5,0,11.2c0,0.9-0.3,1.9-0.8,2.7
		c-1.6,2.7-1.2,6.3,1.2,8.3c1.3,1.1,2.8,1.6,4.3,1.6c1.5,0,3.1-0.6,4.3-1.7c0.1-0.1,0.1-0.2,0.2-0.2v-27.5c-1.2,0.7-2.3,1.3-3.5,2
		c-0.3,0.1-0.6,0.2-1,0.2c-0.4,0-0.7-0.1-1-0.2c-5.3-3-10.6-6-15.8-9.1c-0.5-0.3-0.8-1.1-0.8-1.6c-0.1-3,0-6,0-9c0-2.9,0-5.9,0-8.8
		c0-0.9,0.2-1.5,1-1.9c4.3-2.4,8.5-4.9,12.8-7.3c0.3-0.2,0.6-0.2,1-0.2c0.4,0,0.8,0,1.1,0c0,0,0,0,0,0c1.2,0,2.4-0.1,3.6-0.1
		c0.3,0,0.6,0,0.9,0c0.3,0,0.6,0,0.8,0.2c0.3,0.2,0.6,0.3,0.9,0.5v-5.2c-0.1-0.2-0.1-0.5-0.2-0.8c-0.1-0.7-0.5-1.6-1-1.9
		c-1.9-1-1.5-2.6-1.5-4.1c0-1,0.1-1.9,0-2.9c-0.2-1.6,0.2-2.7,1.8-3.7c0.3-0.2,0.6-0.4,0.9-0.7v-9.1c-1.4-1.3-3.1-2-4.8-1.9
		c-1.5,0.1-3,0.7-4.3,1.9c-2.7,2.6-2.8,7.3,0.3,9.3c2.4,1.5,2.3,3.3,2.3,5.5c0,1.1,0.1,2.3,0,3.4c-0.1,0.6-0.5,1.2-0.8,1.8
		c-0.6,1.1-1.1,2.1-1.7,3.1c-0.3,0.5-0.5,1.2-0.9,1.4c-4.4,2.6-8.7,5.1-13.2,7.6c-0.5,0.3-1.1,0.4-1.7,0.3c-0.2,0-0.4,0-0.5-0.1
		c-4.6-1.4-9.2-3-13.8-4.5c-1-0.3-1.6-0.7-2-1.8c-0.6-1.7-2.2-2.7-3.9-2.8c-0.6,0-1.2,0.1-1.7,0.3c-2.3,0.8-3.6,3.1-2.9,5.5
		c0.3,1,0.1,1.7-0.5,2.4c-3.2,4.3-6.3,8.6-9.4,12.9c-0.9,1.2-0.9,2.2,0,3.4c3.2,4.3,6.4,8.7,9.5,13.1c0.3,0.5,0.6,1.3,0.4,1.8
		c-0.6,2.7,0.4,5,2.8,5.9c0.6,0.2,1.2,0.3,1.8,0.3c1.8-0.1,3.2-1.2,4.1-3.1c0.2-0.5,0.8-1.1,1.4-1.3c4.7-1.6,9.5-3.2,14.3-4.6
		c0.2-0.1,0.3-0.1,0.5-0.1C191.7,113,192.3,113.1,192.8,113.3z M211.5,55.2C211.5,55.2,211.5,55.2,211.5,55.2c1.4,0,2.7,1.3,2.6,2.7
		c0,1.5-1.3,2.8-2.8,2.7c0,0,0,0,0,0c-1.5-0.1-2.6-1.2-2.6-2.7C208.8,56.5,210.1,55.2,211.5,55.2z M214.2,140.1
		c-0.1,1.5-1.4,2.7-2.9,2.6c0,0,0,0,0,0c-1.5-0.1-2.5-1.3-2.5-2.8c0.1-1.4,1.3-2.6,2.7-2.6c0,0,0,0,0,0
		C213,137.3,214.3,138.7,214.2,140.1z M212.3,123.8C212.3,123.8,212.3,123.8,212.3,123.8c0,3.2,0,6.4,0,9.6c0,0,0,0,0,0
		c-0.6,0-1.1,0-1.7,0c0-3.2,0-6.3,0-9.6C211.2,123.8,211.7,123.8,212.3,123.8z M170.7,113.1c-1.2-0.1-1.8-0.9-2.5-1.9
		c-2.6-3.7-5.3-7.4-8-11c-0.5-0.7-0.4-1.1,0.1-1.8c2.9-3.9,5.7-7.8,8.6-11.7c0.3-0.5,1.1-0.7,1.6-0.9c0.6-0.2,1.4-0.1,1.8-0.5
		c0.7-0.6,1.4-0.8,2-0.8c0.7,0,1.4,0.3,2.1,0.5c4.1,1.4,8.3,2.7,12.5,4c0.9,0.3,1.2,0.7,1.1,1.6c-0.1,2.9,0,5.8,0,8.6c0,0,0,0,0,0
		c0,0,0,0,0,0c0,2.9,0,5.8,0,8.6c0,0.9-0.3,1.4-1.2,1.7c-4.6,1.4-9.1,3-13.7,4.4c-0.1,0-0.3,0.1-0.5,0.1c-0.5,0-1-0.2-1.5-0.3
		c-0.7-0.2-1.3-0.7-1.9-0.7c0,0,0,0,0,0C171.1,113.1,170.9,113.1,170.7,113.1z"/>
	<path class="st1" d="M196.9,106.2c0,1.3,0.5,2.2,1.9,2.2c0,0,0,0,0,0c1.4,0,1.8-1,1.8-2.2c0-4.6,0-9.2,0-13.8
		c0-1.2-0.5-2.1-1.9-2.1c0,0,0,0,0,0c-1.4,0-1.9,0.9-1.9,2.2c0,2.2,0,4.5,0,6.7c0,0,0,0,0,0c0,0,0,0,0,0
		C196.9,101.6,196.9,103.9,196.9,106.2z"/>
	<path class="st1" d="M171.2,90.6c-0.1,0-0.2,0-0.3,0c-0.7,0-1.6,0.3-2,0.7c-1.7,2.1-3.2,4.4-4.8,6.5c-0.8,1-1,2,0.1,2.9
		c0.3,0.3,0.7,0.4,1.1,0.4c0.6,0,1.3-0.4,1.9-1.2l5.4-8C172.1,91.5,171.7,90.6,171.2,90.6z"/>
	<path class="st1" d="M181.4,24.3c-1.2,0.3-2.4,0.6-3.7,0.9c-0.4,0.1-0.8,0.2-1.2,0.3c-0.7,0.2-1.2,0-1.8-0.5
		c-0.7-0.7-1.7-0.8-2.6-0.3c-0.8,0.5-1.3,1.4-1.1,2.4c0.2,1,1,1.7,2,1.8c1.1,0.1,1.9-0.4,2.2-1.5c0.2-0.6,0.6-1,1.2-1.1
		c1.7-0.4,3.3-0.8,5-1.2c0.4-0.1,0.8,0,1.2,0.2c1,0.6,1.1,1.9,0,2.5c-1.2,0.6-2.4,1.3-3.6,1.9c-0.4,0.2-0.7,0.2-1.1,0.1
		c-0.6-0.2-1.2,0.1-1.4,0.7c-0.2,0.6,0.2,1.2,0.7,1.4c0.6,0.2,1.1-0.1,1.3-0.7c0.1-0.4,0.4-0.7,0.7-0.8c1.3-0.7,2.5-1.3,3.7-2
		c0.6-0.3,1.3-0.2,1.7,0.4c0.4,0.5,0.3,1.2-0.2,1.7c-0.4,0.4-0.8,0.7-1.2,1.1c-0.1,0.1-0.3,0.2-0.4,0.2c-0.4,0-0.7,0.3-0.7,0.7
		c0,0.4,0.3,0.7,0.6,0.7c0.4,0,0.7-0.2,0.8-0.6c0-0.1,0.1-0.3,0.2-0.4c0.4-0.4,0.9-0.8,1.3-1.2c0.5-0.4,1.2-0.4,1.6,0.1
		c0.6,0.5,0.7,1.3,0.2,2c-0.6,0.9-1.2,1.7-1.7,2.6c-0.4,0.6-0.8,0.8-1.5,0.8c-0.7,0-1.2,0.4-1.4,1.1c-0.3,0.6-0.2,1.2,0.3,1.7
		c0.5,0.7,1.4,0.8,2.2,0.4c0.8-0.4,1.1-1.3,0.8-2.1c-0.2-0.5-0.1-1,0.2-1.4c0.5-0.7,1-1.5,1.5-2.3c0.5-0.8,1.2-1,2.1-1
		c0.5,0,0.6,0.2,0.5,0.6c-0.1,0.7-0.5,1.3-0.9,1.9c-0.1,0.2-0.2,0.3-0.4,0.3c-0.5,0.1-0.8,0.6-0.7,1.1c0.1,0.5,0.5,0.8,1,0.8
		c0.5-0.1,0.9-0.5,0.8-1c-0.1-0.7,0.1-1.4,0.4-2.1c0.3-0.6,0.8-0.9,1.5-0.8c0.3,0.1,0.6,0.2,1,0.2c0.6,0.1,1,0.6,0.9,1.2
		c-0.1,0.8-0.2,1.6-0.3,2.5c-0.1,0.9-0.5,1.6-1.2,2.2c-1.1,0.8-1,2.3,0,3.1c0.8,0.6,1.9,0.5,2.6-0.2c0.7-0.8,0.7-1.9,0-2.7
		c-0.5-0.6-0.8-1.3-0.7-2.1c0.1-0.9,0.2-1.8,0.3-2.7c0.1-0.6,0.5-1,1-1.1c0.6,0,1.2,0.3,1.3,0.9c0.1,0.4,0,0.8,0,1.2
		c0,0.2,0,0.3,0,0.5c0.1,0.3,0.5,0.4,0.7,0.3c0.3-0.1,0.4-0.4,0.3-0.8c-0.1-0.4-0.3-0.8-0.3-1.2c-0.1-0.6,0.3-1.1,0.9-1.2
		c0.3-0.1,0.6-0.2,0.9-0.3c0.8-0.2,1.5,0.1,1.8,0.8c0.3,0.6,0.5,1.1,0.8,1.7c0.2,0.3,0.1,0.6-0.1,0.9c-0.6,0.7-0.4,1.8,0.3,2.4
		c0.7,0.6,1.7,0.5,2.3-0.2c0.5-0.5,0.6-1.2,0.3-1.8c-0.3-0.6-0.8-1-1.5-1.1c-0.3,0-0.6-0.1-0.7-0.4c-0.3-0.6-0.6-1.3-0.9-2
		c-0.2-0.6-0.1-1.2,0.4-1.6c0.3-0.2,0.6-0.4,0.9-0.6c0.6-0.3,1.3,0,1.5,0.7c0,0.1,0,0.3,0,0.5c0,0.4,0.2,0.7,0.6,0.8
		c0.4,0.2,0.7,0.1,1-0.2c0.3-0.3,0.4-0.6,0.3-1c-0.1-0.4-0.5-0.6-0.9-0.7c-0.4,0-0.7-0.3-0.9-0.7c-0.2-0.4-0.1-0.8,0.2-1.1
		c0.2-0.2,0.3-0.4,0.5-0.6c0.5-0.5,1.2-0.6,1.7-0.2c0.5,0.3,0.7,0.8,0.7,1.4c0,0.7,0.3,1.3,0.8,1.7c0.9,0.7,2.2,0.7,3-0.3
		c0.6-0.6,0.7-1.4,0.4-2.2c-0.3-0.8-0.9-1.3-1.8-1.4c-0.4-0.1-0.8,0-1.2,0.2c-0.8,0.3-1.8,0-2.1-0.8c-0.2-0.5,0-1,0.3-1.4
		c0.4-0.4,0.9-0.6,1.5-0.4c1.3,0.4,2.5,0.7,3.7,1.1c0.5,0.2,0.9,0.5,1,1c0.2,0.7,0.8,1.1,1.5,1.2c0.5,0.1,1,0.1,1.4-0.2v-3.3
		c-0.6-0.4-1.5-0.4-2.1,0c-0.4,0.3-0.9,0.4-1.4,0.3c-1.2-0.4-2.5-0.7-3.7-1.1c-0.3-0.1-0.6-0.3-0.7-0.5c-0.4-0.4-0.5-1-0.2-1.5
		c0.2-0.5,0.7-0.7,1.2-0.6c0.5,0,1.1,0,1.6,0.1c0.6,0,1.2,0.2,1.8,0.5c0.5,0.4,1.2,0.3,1.6-0.2c0.4-0.4,0.4-1.1,0-1.5
		c-0.4-0.5-1-0.6-1.6-0.2c-0.5,0.3-1.1,0.4-1.7,0.4c-0.3,0-0.5,0-0.8,0c0,0,0,0,0-0.1c-0.4,0-0.8,0-1.2,0c-0.5,0-0.8-0.3-0.9-0.7
		c-0.1-0.5-0.2-1-0.2-1.4c0-0.5,0.4-0.8,0.9-1c0.7-0.2,1.4-0.5,2.2-0.2c0.3,0.1,0.5,0,0.7-0.2c0.3-0.3,0.3-0.9,0-1.2
		c-0.3-0.3-0.9-0.3-1.2,0c-0.3,0.3-0.7,0.6-1.1,0.7c-0.2,0.1-0.5,0.1-0.7,0.2c-0.6,0.2-1.2-0.1-1.5-0.7c-0.2-0.6,0-1.2,0.6-1.5
		c1.5-0.8,3-1.6,4.6-2.4c0.6-0.3,1.1-0.3,1.6,0.1c0.7,0.5,1.6,0.4,2.3-0.1V9.2c-0.7-0.4-1.5-0.5-2.3-0.1c-0.7,0.4-1.1,1-1.2,1.8
		c0,0.6-0.3,1.1-0.9,1.4c-0.4,0.2-0.7,0.4-1.1,0.6c-1.2,0.6-2.3,1.2-3.5,1.8c-0.6,0.3-1.2,0.2-1.5-0.3c-1.1-1.5-1.3-3.2-0.5-4.9
		c0.3-0.7,0.8-1.2,1.2-1.8c0.4-0.6,0.9-0.9,1.6-0.9c1-0.1,1.6-0.9,1.6-1.9c-0.1-0.9-0.9-1.6-1.8-1.6c-0.9,0-1.7,0.8-1.7,1.7
		c0,1.1-0.4,2.1-1.1,3c-1.3,1.7-3.5,2.4-5.5,1.7c-0.7-0.2-1-0.8-0.9-1.5c0.1-0.3,0.1-0.6,0.2-0.9c0.1-0.5,0.3-1,0.7-1.4
		c0.3-0.3,0.4-0.8,0.1-1.1c-0.2-0.4-0.7-0.6-1.1-0.4c-0.4,0.2-0.7,0.7-0.5,1.1c0.2,0.4,0.2,0.9,0.1,1.3c-0.1,0.4-0.2,0.8-0.3,1.2
		c-0.2,0.6-0.7,1-1.3,1c-0.5,0-1,0-1.4-0.1c-0.4,0-0.8-0.3-0.8-0.8c-0.1-1-0.2-2-0.3-3c-0.1-0.8,0.1-1.5,0.7-2.1
		c0.6-0.6,0.6-1.6,0-2.3c-0.6-0.7-1.5-0.8-2.3-0.4c-1,0.7-1.1,2.2-0.1,2.9c0.5,0.4,0.8,0.9,0.9,1.5c0.1,1.1,0.2,2.2,0.3,3.3
		c0,0.5-0.2,0.8-0.7,0.9c-0.5,0.1-1.1,0.1-1.5-0.2c-0.1-0.1-0.3-0.2-0.4-0.3c-0.2-0.5-0.4-0.9-0.6-1.4c-0.1-0.1-0.1-0.3-0.2-0.4
		c-0.3-0.6-0.3-1.1-0.1-1.7c0.1-0.4,0-0.9-0.4-1.1c-0.4-0.3-0.9-0.3-1.3,0c-0.4,0.3-0.5,0.6-0.3,1.1c0.1,0.3,0.2,0.5,0.5,0.7
		c0.4,0.3,0.7,0.6,0.9,1.1c0.2,0.7,0.5,1.4,0.7,2.1c0.2,0.4-0.1,0.8-0.6,0.7C188,9,186.9,8,186.3,6.5C186,5.8,186,5.1,186,4.4
		c0.1-0.9-0.6-1.7-1.4-1.9c-0.9-0.2-1.8,0.2-2.1,1c-0.5,1.2,0.3,2.5,1.6,2.6c0.5,0,0.8,0.2,1,0.6c0.1,0.2,0.2,0.4,0.4,0.6
		c0.5,0.8,1,1.6,1,2.6c0.1,1-0.1,2-0.7,2.8c-0.4,0.5-1,0.6-1.6,0.2c-0.4-0.3-0.8-0.6-1.2-0.9c-0.3-0.2-0.5-0.4-0.5-0.8
		c-0.1-0.5-0.6-0.8-1-0.7c-0.5,0.1-0.9,0.5-0.8,1.1c0.1,0.5,0.5,0.8,1.1,0.8c0.2,0,0.5,0,0.7,0.1c0.5,0.3,1,0.7,1.5,1.1
		c0.4,0.3,0.5,0.9,0.2,1.4c-0.4,0.7-1.3,1-2.1,0.7c-1.1-0.5-2.2-0.9-3.4-1.4c-0.5-0.2-0.7-0.5-0.8-1c-0.1-1.3-1.5-2.1-2.7-1.7
		c-1,0.4-1.6,1.5-1.3,2.5c0.4,1.3,1.9,1.9,3.1,1.1c0.5-0.3,1-0.4,1.6-0.2c1.1,0.4,2.2,0.9,3.4,1.4c0.7,0.3,1,1.1,0.9,1.8
		c-0.1,0.3-0.1,0.6-0.2,0.9c-0.2,0.7-0.8,1.3-1.5,1.4c-0.6,0.1-1.2-0.1-1.7-0.5c-0.5-0.4-1.1-0.4-1.5,0c-0.4,0.4-0.4,1.1,0,1.5
		c0.4,0.4,1,0.5,1.5,0.1c0.7-0.6,2-0.7,2.7,0.2c0.4,0.5,0.6,1,0.4,1.6C182.3,23.9,181.9,24.2,181.4,24.3z M191.1,26.7
		c-0.5,0-1-0.4-1-1c0-0.5,0.4-1,1-1c0.5,0,1,0.4,1,1C192.1,26.3,191.6,26.7,191.1,26.7z M193.1,30.7c-0.8,0-1.6-0.7-1.6-1.5
		c0-0.8,0.7-1.6,1.5-1.6c0.9,0,1.5,0.7,1.6,1.5C194.6,29.9,193.9,30.6,193.1,30.7z M200.2,23.2c-0.6,0-1-0.5-1-1.1c0-0.5,0.5-1,1-1
		c0.6,0,1.1,0.5,1.1,1.1C201.2,22.8,200.7,23.2,200.2,23.2z M200.2,15.6c0.9,0,1.7,0.8,1.7,1.7c0,0.9-0.8,1.7-1.7,1.7
		c-0.9,0-1.7-0.8-1.7-1.7C198.5,16.3,199.2,15.6,200.2,15.6z M198.4,25.1c1.1,0,2,0.9,2,2c0,1.1-0.9,2-2,2c-1.1,0-2-0.9-2-2
		C196.5,26,197.4,25.1,198.4,25.1z M197.9,22.2c0,0.7-0.6,1.3-1.3,1.3c-0.7,0-1.4-0.6-1.4-1.3c0-0.7,0.6-1.4,1.3-1.4
		C197.3,20.8,197.9,21.4,197.9,22.2z M195.9,12.8c0.8,0,1.4,0.6,1.4,1.4c0,0.8-0.6,1.4-1.4,1.4c-0.8,0-1.4-0.6-1.4-1.4
		C194.5,13.4,195.1,12.8,195.9,12.8z M194,16.8c0.5,0,0.9,0.4,0.9,0.9c0,0.5-0.4,0.9-0.9,0.9c-0.5,0-0.9-0.4-0.9-0.9
		C193.1,17.3,193.5,16.8,194,16.8z M194,23.5c0.7,0,1.2,0.5,1.2,1.2c0,0.7-0.6,1.2-1.2,1.2c-0.7,0-1.2-0.6-1.2-1.2
		C192.8,24.1,193.4,23.5,194,23.5z M192.5,21.6c0,1.2-1,2.1-2.1,2.1c-1.2,0-2.2-1-2.2-2.2c0-1.1,1-2.1,2.1-2.1
		C191.6,19.5,192.5,20.4,192.5,21.6z M190.1,13.3c1.1,0,2,0.9,2,2c0,1.1-0.9,2-2,2c-1.1,0-2-0.9-2-2C188.1,14.2,189,13.3,190.1,13.3
		z M186.7,23.8c0.5,0,1,0.4,1,0.9c0,0.5-0.4,1-0.9,1c-0.5,0-1-0.4-1-0.9C185.7,24.2,186.2,23.8,186.7,23.8z"/>
	<path class="st1" d="M12.3,114.7c0.4,0,0.9,0.1,1.4,0.4c0.2,0.1,0.5,0.2,0.8,0.2c-0.3,0-0.6-0.1-0.8-0.2
		C13.2,114.7,12.8,114.6,12.3,114.7z"/>
	<path class="st1" d="M23.9,121c0.1-1.3-0.3-2.1-1.3-2.7c-1-0.6-1.9-1.3-2.9-2c-0.9-0.7-1.8-1.4-3-1.4c1.1,0,2,0.7,3,1.4
		c0.9,0.7,1.9,1.4,2.9,2C23.6,118.9,23.9,119.6,23.9,121c-0.3,3.9,2.7,6.9,6.4,6.8C26.6,127.8,23.6,124.9,23.9,121z"/>
	<path class="st1" d="M10.4,110.1c0.6-1,1.2-2,1.8-3.1c0.3-0.6,0.8-1.1,0.8-1.7c0.1-5,0.1-9.9,0-14.9c0-0.6-0.5-1.4-1-1.7
		C8,86.3,4,84,0,81.8v0c4,2.3,8,4.6,12,6.9c0.5,0.3,1,1.1,1,1.7c0.1,5,0.1,9.9,0,14.9c0,0.6-0.5,1.2-0.8,1.7
		C11.6,108,11,109.1,10.4,110.1c-0.3,0.5-0.6,1.3-1.1,1.5c-3.1,1.9-6.2,3.7-9.3,5.5v0c3.1-1.8,6.3-3.6,9.4-5.5
		C9.8,111.3,10.1,110.6,10.4,110.1z"/>
	<path class="st1" d="M12.9,83.6c2.8-2,5.6-3.9,8.4-5.9c0.5-0.3,0.8-1,1-1.5c1-2.8,3.5-4.5,6.3-4.4c-2.8-0.1-5.3,1.6-6.3,4.4
		c-0.2,0.6-0.5,1.2-1,1.5C18.5,79.7,15.7,81.6,12.9,83.6c-0.4,0.3-0.7,0.4-1.1,0.4C12.2,84,12.5,83.8,12.9,83.6z"/>
	<path class="st1" d="M31.1,78.2c0,1.5-1.3,2.7-2.8,2.7c0,0,0,0,0,0C29.9,80.9,31.1,79.7,31.1,78.2c0-1.3-1.3-2.7-2.6-2.7
		c0,0,0,0,0,0C29.9,75.5,31.2,76.8,31.1,78.2z"/>
	<path class="st1" d="M23.8,82.8c-2.3,1.6-4.6,3.2-6.9,4.8c0,0,0,0,0,0C19.2,86,21.4,84.4,23.8,82.8c-0.4-0.5-0.7-1-1.1-1.5
		c0,0,0,0,0,0C23.1,81.9,23.4,82.3,23.8,82.8z"/>
	<path class="st1" d="M32.9,121.4c0,1.4-1.2,2.6-2.7,2.6c0,0,0,0,0,0C31.7,124,32.9,122.9,32.9,121.4c0-1.5-1.2-2.8-2.7-2.8
		c0,0,0,0,0,0C31.7,118.7,32.9,119.9,32.9,121.4z"/>
	<path class="st1" d="M26.7,115.9c1.6-0.6,2.9-0.9,4-0.9C29.6,115,28.3,115.3,26.7,115.9c-0.1,0-0.2,0.1-0.3,0.1
		C26.5,116,26.6,115.9,26.7,115.9z"/>
	<path class="st1" d="M1.4,120.6c3-1.7,5.9-3.4,8.9-5.1c0.7-0.4,1.3-0.8,2.1-0.9c0.4,0,0.9,0.1,1.4,0.4c0.2,0.1,0.5,0.2,0.8,0.2
		c0.3,0,0.6,0,0.9-0.1c0.4-0.2,0.8-0.3,1.2-0.3c1.1,0,2,0.7,3,1.4c0.9,0.7,1.9,1.4,2.9,2c1.1,0.6,1.4,1.4,1.3,2.7
		c-0.3,3.9,2.7,6.9,6.4,6.8c0.5,0,1.1-0.1,1.6-0.2c2.6-0.6,3.9-2.5,4.9-4.8c0-1,0-1.9,0-2.9c0,0,0-0.1-0.1-0.1
		c-1.6-3.3-3.3-4.8-5.9-4.8c-1.1,0-2.5,0.3-4,0.9c-0.1,0-0.2,0.1-0.3,0.1c-0.3,0-0.7-0.1-1-0.3c-1.8-1.2-3.5-2.4-5.2-3.7
		c-0.4-0.3-0.7-0.8-0.7-1.3c-0.1-1.6-0.7-2.8-1.9-3.9c-0.4-0.4-0.8-1.1-0.8-1.7c-0.1-3.9-0.1-7.9,0-11.8c0-0.5,0.4-1.2,0.8-1.5
		c3.1-2.3,6.3-4.5,9.4-6.6c0.4-0.3,1.1-0.5,1.6-0.5c3.4-0.2,5.9-2.7,6.2-6c0.2-3.3-1.9-6.2-5.1-6.8c-0.4-0.1-0.8-0.1-1.2-0.1
		c-2.8-0.1-5.3,1.6-6.3,4.4c-0.2,0.6-0.5,1.2-1,1.5c-2.8,2-5.6,3.9-8.4,5.9c-0.4,0.3-0.7,0.4-1.1,0.4c-0.3,0-0.7-0.1-1.1-0.4
		c-2.9-1.7-5.9-3.5-8.9-5.1C1,78,0.3,77.5,0,76.6v5.2c4,2.3,8,4.6,12,6.9c0.5,0.3,1,1.1,1,1.7c0.1,5,0.1,9.9,0,14.9
		c0,0.6-0.5,1.2-0.8,1.7c-0.6,1-1.2,2.1-1.8,3.1c-0.3,0.5-0.6,1.3-1,1.5c-3.1,1.9-6.2,3.7-9.4,5.5v27.5c2.2-2.2,2.5-5.6,0.8-8.2
		c-0.4-0.6-0.6-1.3-0.6-2c-0.1-3.8,0-7.7-0.1-11.5C0.1,121.7,0.5,121.1,1.4,120.6z M32.9,121.4c0,1.4-1.2,2.6-2.7,2.6c0,0,0,0,0,0
		c-1.5,0-2.8-1.3-2.7-2.8c0-1.4,1.3-2.6,2.7-2.6c0,0,0,0,0,0C31.7,118.6,32.9,119.9,32.9,121.4z M31.2,78.2c0,1.5-1.3,2.7-2.8,2.7
		c0,0,0,0,0,0c-1.5,0-2.6-1.2-2.6-2.7c0-1.5,1.3-2.8,2.8-2.7c0,0,0,0,0,0C29.9,75.5,31.2,76.8,31.2,78.2z M23.8,82.8
		c-2.3,1.6-4.6,3.2-6.9,4.8c0,0,0,0,0,0c-0.4-0.5-0.8-0.8-1.2-1.4c2.3-1.6,4.6-3.2,7-4.9c0,0,0,0,0,0C23.1,81.9,23.4,82.3,23.8,82.8
		z"/>
	<path class="st1" d="M0.5,53.9c-0.2-0.2-0.3-0.4-0.5-0.6v9.1C2.4,60.3,2.6,56.4,0.5,53.9z"/>
	<path class="st1" d="M0,9.2v3.7c0.2-0.1,0.3-0.2,0.4-0.4c0.7-0.8,0.7-2,0.1-2.8C0.4,9.5,0.2,9.3,0,9.2z"/>
	<path class="st1" d="M0.7,26.7C0.6,26.3,0.3,26,0,25.8v3.3c0.1-0.1,0.3-0.2,0.4-0.4C0.9,28.1,1,27.4,0.7,26.7z"/>
</g>
</svg>
