<?xml version="1.0" encoding="utf-8"?>
<!-- Copyright Ryan Landvater, 2021 -->
<!-- Generator: Adobe Illustrator 24.3.0, SVG Export Plug-In . SVG Version: 6.00 Build 0)  -->
<svg version="1.1" id="Layer_1" xmlns="http://www.w3.org/2000/svg" xmlns:xlink="http://www.w3.org/1999/xlink" x="0px" y="0px"
	 viewBox="0 0 339.6 394.8" style="enable-background:new 0 0 339.6 394.8;" xml:space="preserve">
<style type="text/css">
	.st0{fill:#4DAF4F;stroke:#000000;stroke-width:0.4951;stroke-miterlimit:10;}
	.st1{fill:#010101;stroke:#000000;stroke-width:0.4951;stroke-miterlimit:10;}
	.st2{fill:#4DAF4F;stroke:#010101;stroke-width:1.9803;stroke-miterlimit:10;}
</style>
<g>
	<path class="st0" d="M237.9,177.2c15.6,20.1,24.1,44.6,24.1,70.4c0,30.7-12,59.5-33.7,81.2s-50.5,33.7-81.2,33.7
		s-59.5-12-81.2-33.7s-33.7-50.5-33.7-81.2s12-59.5,33.7-81.2s50.5-33.7,81.2-33.7c17.5,0,34.5,3.9,49.7,11.3
		c5-8.2,10.4-16.7,15.8-25.2c-19.7-10-42-15.7-65.6-15.7C67.2,103,2.5,167.8,2.5,247.6s64.8,144.6,144.6,144.6
		s144.6-64.8,144.6-144.6c0-36.3-13.4-69.5-35.5-95C250,160.7,243.9,168.9,237.9,177.2z"/>
	<path class="st1" d="M147.2,393C67,393,1.8,327.8,1.8,247.6S67,102.1,147.2,102.1c23.3,0,45.4,5.3,66,15.8l0.9,0.4l-0.5,0.8
		c-5.2,8.2-10.6,16.7-15.8,25.2l-0.4,0.7l-0.9-0.3c-15.4-7.4-32-11.2-49.3-11.2c-30.5,0-59.1,11.9-80.6,33.4s-33.5,50.1-33.5,80.6
		s11.9,59.1,33.4,80.6s50.2,33.4,80.6,33.4c30.5,0,59.1-11.9,80.6-33.4s33.4-50.2,33.4-80.6c0-25.6-8.3-49.8-24-69.9l-0.4-0.5
		l0.4-0.5c6.1-8.4,12.3-16.7,18.3-24.6l0.7-0.8l0.7,0.8c23.1,26.4,35.7,60.4,35.7,95.4C292.6,327.8,227.4,393,147.2,393z
		 M147.2,103.9C68,103.9,3.6,168.3,3.6,247.6S68,391.2,147.2,391.2s143.7-64.5,143.7-143.7c0-34.4-12.3-67.5-34.7-93.6
		c-15,20.3-13.5,28.2-11.7,30.9c12.1,18.6,18.4,40.1,18.4,62.7c0,30.9-12.1,60-33.9,81.8c-21.9,21.9-50.9,33.9-81.8,33.9
		s-60-12.1-81.8-33.9c-21.9-21.9-33.9-50.9-33.9-81.8s12.1-60,33.9-81.8s50.9-33.9,81.8-33.9c17.3,0,34,3.7,49.4,11
		c5-8,10-16,15-23.8C191.5,108.9,169.8,103.9,147.2,103.9z"/>
</g>
<path class="st2" d="M129.3,333.6L63.1,221.8c16.8-10.9,33.2-35.5,33.2-35.5l35.1,94c0,0,76.2-153.5,175.3-276.2
	c7.9,27.7,30.8,48.6,30.5,48.8C232.4,134.7,129.3,333.6,129.3,333.6z"/>
</svg>
