<?xml version="1.0" encoding="utf-8"?>
<!-- Copyright Ryan Landvater, 2021 -->
<!-- Generator: Adobe Illustrator 24.3.0, SVG Export Plug-In . SVG Version: 6.00 Build 0)  -->
<svg version="1.0" id="Layer_1" xmlns="http://www.w3.org/2000/svg" xmlns:xlink="http://www.w3.org/1999/xlink" x="0px" y="0px"
	 viewBox="0 0 339.6 394.8" style="enable-background:new 0 0 339.6 394.8;" xml:space="preserve">
<style type="text/css">
	.st0{fill:#AFAFAF;}
	.st1{fill:#010101;}
	.st2{fill:#AFAFAF;stroke:#010101;stroke-width:1.75;stroke-miterlimit:10;}
</style>
<g>
	<path class="st0" d="M238.5,176.8c15.8,20.3,24.3,45,24.3,71.1c0,31-12.1,60.1-34,82s-51,34-82,34s-60.1-12.1-82-34s-34-51-34-82
		s12.1-60.1,34-82s51-34,82-34c17.7,0,34.8,3.9,50.2,11.4c5.1-8.3,10.5-16.9,16-25.5c-19.9-10.1-42.4-15.9-66.3-15.9
		c-80.6,0-146,65.4-146,146s65.4,146,146,146s146-65.4,146-146c0-36.7-13.5-70.2-35.9-95.9C250.7,160.2,244.5,168.5,238.5,176.8z"/>
	<path class="st1" d="M146.9,394.8C65.9,394.8,0,328.9,0,247.9S65.9,101,146.9,101c23.5,0,45.9,5.4,66.7,16l0.9,0.4l-0.5,0.8
		c-5.3,8.3-10.7,16.9-16,25.5l-0.4,0.7l-0.9-0.3c-15.6-7.5-32.3-11.3-49.8-11.3c-30.8,0-59.7,12-81.4,33.7s-33.8,50.6-33.8,81.4
		s12,59.7,33.7,81.4s50.7,33.7,81.4,33.7c30.8,0,59.7-12,81.4-33.7s33.7-50.7,33.7-81.4c0-25.9-8.4-50.3-24.2-70.6l-0.4-0.5l0.4-0.5
		c6.2-8.5,12.4-16.9,18.5-24.8l0.7-0.8l0.7,0.8c23.3,26.7,36.1,61,36.1,96.4C293.7,328.9,227.8,394.8,146.9,394.8z M146.9,102.8
		c-80,0-145.1,65.1-145.1,145.1S66.9,393,146.9,393S292,327.9,292,247.9c0-34.7-12.4-68.2-35-94.5c-15.1,20.5-13.6,28.5-11.8,31.2
		c12.2,18.8,18.6,40.5,18.6,63.3c0,31.2-12.2,60.6-34.2,82.6c-22.1,22.1-51.4,34.2-82.6,34.2s-60.6-12.2-82.6-34.2
		c-22.1-22.1-34.2-51.4-34.2-82.6s12.2-60.6,34.2-82.6s51.4-34.2,82.6-34.2c17.5,0,34.3,3.7,49.9,11.1c5-8.1,10.1-16.2,15.1-24
		C191.6,107.9,169.7,102.8,146.9,102.8z"/>
</g>
<path class="st2" d="M128.8,334.8L61.9,221.9c17-11,33.5-35.9,33.5-35.9l35.5,94.9c0,0,77-155,177-279c8,28,31.1,49.1,30.8,49.3
	C232.9,133.9,128.8,334.8,128.8,334.8z"/>
</svg>
