<?xml version="1.0" encoding="utf-8"?>
<!-- Copyright Ryan Landvater, 2021 -->
<!-- Generator: Adobe Illustrator 24.3.0, SVG Export Plug-In . SVG Version: 6.00 Build 0)  -->
<svg version="1.0" id="Layer_1" xmlns="http://www.w3.org/2000/svg" xmlns:xlink="http://www.w3.org/1999/xlink" x="0px" y="0px"
	 viewBox="0 0 162 192.1" style="enable-background:new 0 0 162 192.1;" xml:space="preserve">
<style type="text/css">
	.st0{fill:#919191;}
</style>
<path class="st0" d="M150.5,96.6l0.1-27c0-38.1-31-69.1-69.1-69.1s-69.1,31-69.1,69.1l0.1,27h-12v95h161v-95
	C161.5,96.6,150.5,96.6,150.5,96.6z M36.5,69.6c0-24.7,20.3-44.9,45-44.9s44.9,20.1,44.9,44.9l0.1,27h-90V69.6z M63.1,166.6
	l9.7-16.8c-5.1-2.6-8.5-7.9-8.5-14c0-8.7,7-15.7,15.7-15.7s15.7,7,15.7,15.7c0,5.9-3.3,11.1-8.1,13.8l9.8,17H63.1z"/>
</svg>
