<?xml version="1.0" encoding="utf-8"?>
<!-- Generator: Adobe Illustrator 24.3.0, SVG Export Plug-In . SVG Version: 6.00 Build 0)  -->
<svg version="1.1" id="Layer_1" xmlns="http://www.w3.org/2000/svg" xmlns:xlink="http://www.w3.org/1999/xlink" x="0px" y="0px"
	 viewBox="0 0 172.2 160" style="enable-background:new 0 0 172.2 160;" xml:space="preserve">
<style type="text/css">
	.st0{fill:#C1272D;}
</style>
<g>
	<path d="M144,16v128H16V16H144 M160,0H0v160h160V0L160,0z"/>
</g>
<g>
	<path class="st0" d="M109.3,103.2c-1.4,2-3.3,3.8-5.9,5.5s-5.7,3-9.4,4.1c-4.9,1.4-9.2,1.9-12.8,1.6c-3.6-0.3-6.3-1.9-8.1-4.6
		C65.9,98.8,60,90,55.5,83.2s-8.3-12.8-11.2-18l-1,0.3c1.8,8.2,3.6,15.6,5.2,22.3c1.6,6.7,3.3,13.2,5,19.5s3.3,12.7,4.9,19.2
		c1.6,6.5,3.3,13.7,5,21.6c-1.6,1.2-3.8,2.4-6.5,3.7c-2.8,1.3-5.6,2.3-8.5,3.1c-6,1.7-11,2-14.9,1.1c-3.9-1-6.6-4-8-9.1L2.4,40.6
		C3,38.5,4.8,35.9,8,32.9c3.1-3.1,8.1-5.6,14.8-7.4c7.3-2,13.3-2.5,18.1-1.4S49.7,28,53,32.6c2.2,2.9,4.5,6.3,7.2,10.2
		c2.6,3.8,5.3,7.8,8,11.9s5.4,8.2,8,12.3s5,7.7,7.1,11l1-0.3c0.1-12.4,0.3-24.4,0.6-36.1c0.3-11.7,0.8-21.5,1.6-29.5
		c1.8-1.7,4.1-3.3,7.2-5c3-1.6,6.5-3,10.5-4.1c6.7-1.9,12.5-2.4,17.3-1.6c4.8,0.8,8.1,2.9,9.8,6.4c1.3,2.6,3.1,6.6,5.3,12.1
		s4.6,11.7,7.3,18.6s5.5,14.3,8.3,22c2.9,7.7,5.7,15.2,8.3,22.3c2.7,7.1,5,13.7,7.1,19.7s3.7,10.6,4.7,13.8c-2,2-4.1,3.7-6.5,5
		s-5.5,2.5-9.5,3.7c-5.2,1.5-9.9,1.8-13.9,1c-4.1-0.8-7-3.7-8.7-8.9c-5-14.7-9.2-27.9-12.7-39.8c-3.5-11.8-6.6-21.7-9.3-29.7l-1,0.3
		c0.1,5.7,0,13-0.4,21.8C109.8,78.4,109.5,89.6,109.3,103.2z"/>
</g>
</svg>
