<?xml version="1.0" encoding="utf-8"?>
<!-- Copyright Ryan Landvater, 2021 -->
<!-- Generator: Adobe Illustrator 24.3.0, SVG Export Plug-In . SVG Version: 6.00 Build 0)  -->
<svg version="1.0" id="Layer_1" xmlns="http://www.w3.org/2000/svg" xmlns:xlink="http://www.w3.org/1999/xlink" x="0px" y="0px"
	 viewBox="0 0 190.5 64" style="enable-background:new 0 0 190.5 64;" xml:space="preserve">
<style type="text/css">
	.st0{fill:#B3B4B5;}
</style>
<polygon class="st0" points="189.5,31.5 137.4,1.5 137.4,61.6 "/>
<g>
	<path class="st0" d="M62.5,21.8V0.2H67l5.6,9.2c1.4,2.4,2.7,4.9,3.7,7.2h0.1c-0.3-2.9-0.4-5.7-0.4-9V0.2h3.6v21.6h-4.1l-5.6-9.5
		c-1.4-2.4-2.8-5-3.9-7.5l-0.1,0c0.2,2.8,0.2,5.6,0.2,9.2v7.7H62.5z"/>
	<path class="st0" d="M86.8,15.1c0.1,2.8,2.3,4,4.8,4c1.8,0,3.1-0.3,4.3-0.7l0.6,2.7c-1.3,0.5-3.2,1-5.4,1c-5.1,0-8-3.1-8-7.9
		c0-4.3,2.6-8.4,7.6-8.4c5.1,0,6.7,4.2,6.7,7.6c0,0.7-0.1,1.3-0.1,1.7H86.8z M93.6,12.4c0-1.4-0.6-3.8-3.2-3.8
		c-2.4,0-3.5,2.2-3.6,3.8H93.6z"/>
	<path class="st0" d="M102.9,6.2l1.9,2.9c0.5,0.8,1,1.6,1.4,2.4h0.1c0.4-0.9,0.9-1.7,1.3-2.5l1.7-2.9h4.3l-5.2,7.5l5.3,8.1h-4.4
		l-1.9-3.1c-0.5-0.8-1-1.7-1.4-2.5h-0.1c-0.4,0.9-0.9,1.7-1.4,2.5l-1.8,3.1h-4.4l5.4-7.9l-5.2-7.6H102.9z"/>
	<path class="st0" d="M121,1.8v4.4h3.7v2.9H121v6.9c0,1.9,0.5,2.9,2,2.9c0.7,0,1.2-0.1,1.5-0.2l0.1,3c-0.6,0.2-1.6,0.4-2.8,0.4
		c-1.4,0-2.7-0.5-3.4-1.3c-0.8-0.9-1.2-2.3-1.2-4.4V9.2h-2.2V6.2h2.2V2.7L121,1.8z"/>
	<path class="st0" d="M19.5,63.7c-3-0.8-5.7-1.7-8.4-2.8c-0.5-0.2-0.9-0.3-1.4-0.3c-5-0.3-9.4-3.9-9.4-10.9
		c0-6.7,4.1-11.3,10.3-11.3c6.2,0,10,4.8,10,10.9c0,5.2-2.4,8.7-5.6,10v0.1c1.9,0.5,3.9,1,5.7,1.3L19.5,63.7z M16.3,49.4
		c0-4.1-2-7.9-5.9-7.9c-3.9,0-6,3.7-6,8.1c0,4.3,2.2,7.9,6,7.9C14.2,57.4,16.3,53.9,16.3,49.4z"/>
	<path class="st0" d="M37.8,55.5c0,1.9,0.1,3.4,0.1,4.7h-3.5l-0.2-2.4h-0.1c-0.7,1.1-2.2,2.7-5,2.7c-2.8,0-5.4-1.7-5.4-6.8v-9.2h3.9
		v8.5c0,2.6,0.8,4.3,2.9,4.3c1.6,0,2.6-1.1,3-2.1c0.1-0.4,0.2-0.8,0.2-1.2v-9.4h3.9V55.5z"/>
	<path class="st0" d="M44.9,53.5c0.1,2.8,2.3,4,4.8,4c1.8,0,3.1-0.3,4.3-0.7l0.6,2.7c-1.3,0.5-3.2,1-5.4,1c-5.1,0-8-3.1-8-7.9
		c0-4.3,2.6-8.4,7.6-8.4c5.1,0,6.7,4.2,6.7,7.6c0,0.7-0.1,1.3-0.1,1.7H44.9z M51.7,50.8c0-1.4-0.6-3.8-3.2-3.8
		c-2.4,0-3.5,2.2-3.6,3.8H51.7z"/>
	<path class="st0" d="M58.4,56.6c0.9,0.5,2.6,1.1,4,1.1c1.7,0,2.5-0.7,2.5-1.7c0-1.1-0.6-1.6-2.6-2.3c-3-1.1-4.3-2.7-4.3-4.5
		c0-2.8,2.3-4.9,5.9-4.9c1.7,0,3.2,0.4,4.1,0.9L67.3,48c-0.7-0.4-1.9-0.9-3.3-0.9c-1.4,0-2.2,0.7-2.2,1.6c0,1,0.7,1.5,2.7,2.2
		c2.8,1,4.1,2.5,4.2,4.8c0,2.8-2.2,4.9-6.3,4.9c-1.9,0-3.6-0.4-4.7-1.1L58.4,56.6z"/>
	<path class="st0" d="M76.4,40.2v4.4h3.7v2.9h-3.7v6.9c0,1.9,0.5,2.9,2,2.9c0.7,0,1.2-0.1,1.5-0.2l0.1,3c-0.6,0.2-1.6,0.4-2.8,0.4
		c-1.4,0-2.7-0.5-3.4-1.3c-0.8-0.9-1.2-2.3-1.2-4.4v-7.3h-2.2v-2.9h2.2v-3.5L76.4,40.2z"/>
	<path class="st0" d="M87.4,40.3c0,1.2-0.9,2.1-2.2,2.1c-1.3,0-2.2-0.9-2.2-2.1c0-1.2,0.9-2.1,2.2-2.1
		C86.5,38.1,87.3,39.1,87.4,40.3z M83.2,60.2V44.6h4v15.6H83.2z"/>
	<path class="st0" d="M106.2,52.3c0,5.7-4,8.3-8,8.3c-4.4,0-7.8-3-7.8-8c0-5.1,3.4-8.3,8.1-8.3C103.1,44.3,106.2,47.5,106.2,52.3z
		 M94.4,52.4c0,3,1.5,5.3,3.9,5.3c2.2,0,3.8-2.2,3.8-5.3c0-2.4-1.1-5.2-3.8-5.2C95.5,47.2,94.4,49.8,94.4,52.4z"/>
	<path class="st0" d="M109.4,49.3c0-1.8,0-3.3-0.1-4.6h3.5l0.2,2.3h0.1c0.7-1.2,2.4-2.7,5-2.7c2.7,0,5.5,1.8,5.5,6.7v9.2h-3.9v-8.8
		c0-2.2-0.8-3.9-3-3.9c-1.6,0-2.7,1.1-3.1,2.3c-0.1,0.4-0.2,0.8-0.2,1.3v9.2h-4V49.3z"/>
</g>
</svg>
