<?xml version="1.0" encoding="utf-8"?>
<!-- Copyright Ryan Landvater, 2021 -->
<!-- Generator: Adobe Illustrator 24.3.0, SVG Export Plug-In . SVG Version: 6.00 Build 0)  -->
<svg version="1.0" id="Layer_1" xmlns="http://www.w3.org/2000/svg" xmlns:xlink="http://www.w3.org/1999/xlink" x="0px" y="0px"
	 viewBox="0 0 320 305.8" style="enable-background:new 0 0 320 305.8;" xml:space="preserve">
<style type="text/css">
	.st0{fill:#C1272D;stroke:#000000;stroke-width:2;stroke-miterlimit:10;}
	.st1{fill:#C1272D;}
</style>
<g>
	<path class="st0" d="M52.2,96.9c-7.5-7.4-15.1-14.8-22.5-22.2C13.5,98.2,4,126.7,4,157.4c0,30.9,9.6,59.5,26,83.2
		c7-8,14.1-16,21.4-24C41,199.3,35,179,35,157.4C35,135.2,41.3,114.5,52.2,96.9z"/>
	<g>
		<path class="st1" d="M276.3,82.4c-8.5,5.6-17,11.5-25.5,17.8c9.7,16.9,15.2,36.4,15.2,57.2c0,21-5.6,40.7-15.5,57.7
			c8.1,6.8,16.3,13.4,24.4,19.6c14-22.5,22.1-48.9,22.1-77.3C297,130,289.4,104.3,276.3,82.4z"/>
		<path d="M275.2,236.2l-0.9-0.7c-8.1-6.2-16.3-12.8-24.4-19.6l-0.6-0.5l0.4-0.7c10-17.3,15.4-37.1,15.4-57.2
			c0-19.9-5.2-39.5-15-56.7l-0.4-0.8l0.7-0.5c8.5-6.3,17.1-12.3,25.5-17.9l0.9-0.6l0.5,0.9c13.6,22.8,20.8,48.9,20.8,75.5
			c0,27.6-7.7,54.5-22.3,77.8L275.2,236.2z M266.3,226.7c2.8,2.2,5.6,4.4,8.3,6.5c14-22.8,21.4-49,21.4-75.8
			c0-25.9-6.9-51.3-20-73.6c-4,2.6-5,3.3-9,6.1s-13,12-10.4,19.4c5.5,15.6,10.4,31.5,10.4,48.1c0,17.6-4,34.5-10,47.5
			C255.9,207.2,261.5,222.9,266.3,226.7z"/>
	</g>
	<g>
		<path class="st1" d="M222,264.1c-2.9-3-6-6.2-9.1-9.5c-18,11.6-39.4,18.3-62.3,18.3c-21.3,0-41.2-5.8-58.3-15.8
			c-7.3,9.2-13.7,17.5-19.1,24.7c22.5,14,49,22.2,77.4,22.2c31.2,0,60.1-9.8,83.9-26.5C230.9,273.5,226.8,269.1,222,264.1z"/>
		<path d="M150.5,304.9c-27.6,0-54.5-7.7-77.9-22.3l-0.9-0.6l0.7-0.9c6.1-8.1,12.5-16.5,19.1-24.7l0.5-0.7l0.7,0.4
			c17.5,10.3,37.5,15.7,57.8,15.7c22,0,43.3-6.3,61.8-18.1l0.7-0.4l0.6,0.6c3.2,3.3,6.2,6.4,9.1,9.5c4.5,4.7,8.7,9.2,12.5,13.4
			l0.8,0.8l-0.9,0.7C210.1,295.7,180.9,304.9,150.5,304.9z M85,287.3c20.4,9.9,42.6,15.6,65.5,15.6c29.6,0,58.1-8.9,82.4-25.7
			c-3.5-3.9-7.5-8.1-11.7-12.5l0,0c-2.7-2.9-5.6-5.8-8.6-8.9c-18.6,11.8-40.1,18-62.2,18c-20.4,0-40.5-5.4-58.1-15.5
			c-1.9,2.3-3.9,4.6-5.5,7C81,273.9,78,283.9,85,287.3z"/>
	</g>
	<g>
		<path class="st1" d="M99.8,53.7c15.3-7.5,32.5-11.8,50.7-11.8c20.8,0,40.3,5.5,57.1,15.1c8.4-8,16.3-15.3,23.5-21.9
			c-23.1-15.3-50.8-24.2-80.6-24.2c-25.1,0-48.7,6.3-69.3,17.5C86.5,35.8,92.7,44.3,99.8,53.7z"/>
		<path d="M207.8,58.3l-0.6-0.4c-17.2-9.8-36.8-15-56.6-15c-17.6,0-34.5,3.9-50.3,11.7l-0.7,0.4L99,54.3c-6.4-8.5-12.7-17-18.6-25.3
			L79.7,28l1-0.5C102,16,126.2,9.9,150.5,9.9c29,0,57,8.4,81.1,24.4l1.1,0.7l-0.9,0.9c-7.7,7.1-15.6,14.5-23.5,21.9L207.8,58.3z
			 M150.5,40.9c20,0,39.6,5.2,57,14.9c7.4-6.9,14.8-13.9,22-20.6c-23.6-15.3-50.8-23.4-79-23.4c-23.6,0-47.1,5.8-67.9,16.8
			c2.5,3.4,2.8,3.7,5.4,7.2c3.3,4.4,16,14,23.2,11.8C124,43.8,136.9,40.9,150.5,40.9z"/>
	</g>
	<path class="st0" d="M171.8,154.4c42-40.4,92.2-80.6,147.2-108.5c0.6-0.3-20-18-36-44c0,0-58.4,50.1-134.6,126.9
		C88,60.7,51,1.9,51,1.9c-14,23-40.2,31.8-40,32c34,36,76.3,83.4,113.3,119.3C85,193.8,42.2,240.3,1,289.9c-0.3,0.4,21-1,44,14
		c0,0,39.9-60.5,104-126.7c65.6,63.9,109,111.7,117,126.7c21-31,38.7-35.7,38.7-35.7C255,235.6,209.8,194.5,171.8,154.4z"/>
</g>
</svg>
