<?xml version="1.0" encoding="utf-8"?>
<!-- Copyright Ryan Landvater, 2021 -->
<!-- Generator: Adobe Illustrator 24.3.0, SVG Export Plug-In . SVG Version: 6.00 Build 0)  -->
<svg version="1.0" id="Layer_1" xmlns="http://www.w3.org/2000/svg" xmlns:xlink="http://www.w3.org/1999/xlink" x="0px" y="0px"
	 viewBox="0 0 278.9 73.9" style="enable-background:new 0 0 278.9 73.9;" xml:space="preserve">
<style type="text/css">
	.st0{fill:#B3B4B5;}
</style>
<g id="cb5wRt_1_">
	<g>
		<path class="st0" d="M48.3,73.9c-0.8-0.1-1.7-0.2-2.5-0.3c-1-0.1-1.9-0.2-2.9-0.3c-0.2,0-0.4-0.1-0.6-0.2
			c-1.2-0.6-2.5-1.2-3.7-1.9c-0.2-0.1-0.3-0.2-0.5-0.4C37,69.9,36,69,35.1,68c-1.2-1.3-2.8-2.2-4.2-3.2c-0.1-0.1-0.2-0.1-0.3-0.2
			c0,0,0,0-0.1-0.1c0.5,0.2,1,0.4,1.6,0.6c-0.2-0.4-0.3-0.7-0.5-1.1c0.2,0.1,0.3,0.1,0.4,0.1c0.9,0.4,1.7,0.7,2.6,1.1
			c0.5,0.2,1.1,0.3,1.6,0.3c0.9-0.1,1.9-0.1,2.8,0c0.2,0,0.4,0.1,0.6,0.2c1.9,1.5,4,2.8,5.6,4.6c0.1,0.1,0.3,0.2,0.5,0.2
			c0.7,0,1.3-0.2,1.8-0.7c0.4-0.4,0.9-0.7,1.4-1.1c-1.1-0.3-2.1-0.5-3.2-0.8c1.8,0,3.5,0.7,5.3-0.3c-0.9-0.2-1.8-0.3-2.7-0.5
			c-1.6-0.3-3.1-0.5-4.7-0.8c-0.3,0-0.5-0.2-0.8-0.3c-1.9-0.8-3.8-1.6-5.6-2.4c-0.4-0.2-0.8-0.4-1.2-0.7c-0.9-0.6-1.7-1.3-2.5-2.1
			c0.1,0.1,0.3,0.2,0.4,0.2c3.1,2,6.5,3.5,10,4.8c0.8,0.3,1.8,0.3,2.7,0.4c0.2,0,0.5,0,0.7,0.1c1.4,0.4,2.8-0.1,4.2-0.2
			c0.2,0,0.3-0.2,0.6-0.3c-1-0.2-2-0.4-2.9-0.6c-1.9-0.4-3.6-1-5.3-1.8c-0.3-0.1-0.5-0.3-0.8-0.5c-0.6-0.4-1.1-0.8-1.7-1.2
			c-1.4-0.8-2.4-1.9-3-3.4c0.1,0.1,0.2,0.1,0.2,0.2c1,1.3,2.4,2.2,3.8,3.2c2,1.4,4.3,2.1,6.5,2.7c0.9,0.2,1.9,0,2.9,0
			c-1.3-0.6-2.7-1.1-3.9-1.7c-0.6-0.3-1-0.7-1.5-1.2c1.7,1.3,3.7,1.5,5.6,2.1c0,0,0.1-0.1,0.1-0.2c-1.5-0.8-3.1-1.5-4.5-2.3
			c-1.4-0.8-2.9-1.7-3.9-3.2c1.6,1.1,3,2.2,4.7,3.1c1.6,0.8,3.3,1.4,5.1,1.9c-1.5-1.2-2.7-2.6-3.4-4.4c0,0,0.1-0.1,0.1-0.1
			c0.3,0.4,0.5,0.8,0.8,1.1c1,1.4,2.4,2.5,3.7,3.5c0.3,0.2,0.7,0.2,1.1,0.3c1.1,0.2,2.1,0.4,3.2,0.6c0.6,0.1,0.7,0.2,1.6,1.1
			c-0.6,0.2-1.2,0.5-1.9,0.7c-1,0.3-2.1,0.5-3.1,0.7c-0.4,0.1-0.8,0.4-1.2,0.7c1,0.1,1.9,0.6,2.9,0.1c0.9-0.5,1.9-0.8,2.9-1.2
			c0,0,0.1,0.1,0.1,0.1c-0.8,1-1.5,2.1-2.4,3c-1,1.1-2.1,2-3.2,3c-0.2,0.1-0.4,0.2-0.6,0.3c-1.7,0.4-3.4,0.7-5.1,1
			c-0.1,0-0.2,0.1-0.3,0.1C48.6,73.9,48.4,73.9,48.3,73.9z"/>
		<path class="st0" d="M20.3,34c-0.1,0.2-0.2,0.3-0.2,0.4c0.6,1,1.6,0.9,2.5,1c1.7,0.2,3.3-0.2,5-0.6c1.1-0.3,1.8-1,2.3-1.9
			c0.5-1.1,1.3-1.9,2.2-2.6c0.1-0.1,0.3-0.1,0.4-0.1c0.5,0.1,0.9,0.3,1.4,0.4c-0.2,0.8,0.1,1.8-0.5,2.5c1.1-0.8,1.7-1.9,2.5-3.1
			c0,0.8-0.3,1.3-1.1,2.4c0.7-0.4,1.3-0.7,2-1c-0.6,0.9-1.5,1.5-1.4,2.7c0.3-0.3,0.6-0.6,0.9-1c0.2-0.4,0.5-0.7,0.9-0.9
			c0.9-0.6,1.9-1.1,3.2-1.2c-1.2,0.6-2.5,1-3.2,2.3c0.3-0.1,0.5-0.1,0.7-0.3c0.5-0.3,0.9-0.5,1.4-0.9c1.7-1.3,3.8-1.8,5.8-2.1
			C44,30.6,43,31,41.9,31.3c-1.4,0.4-2.5,1.3-3.6,2.1c-0.1,0.1-0.1,0.2-0.2,0.3c0.1,0,0.2,0.2,0.3,0.1c0.2,0,0.5-0.1,0.6-0.2
			c1-0.8,2.2-1.5,3.5-1.9c-1,0.8-2.1,1.6-3.1,2.3c-0.4,0.3-0.6,0.6-0.7,1c-0.1,0.3,0.4,0.7,0.7,0.6c0.4-0.2,0.8-0.4,1.1-0.7
			c0.7-0.7,1.3-1.5,2-2.2c0.3-0.3,0.8-0.4,1.2-0.6c0.4-0.2,0.7-0.3,1.1-0.4c-1.3,0.8-2.5,1.6-3.2,2.9c0,0,0.1,0.1,0.1,0.1
			c0,0,0.1,0,0.1,0c1-1.4,2.5-2.2,4-3c0.2-0.1,0.4-0.1,0.7-0.1c0,0,0,0.1,0.1,0.1c-0.2,0.1-0.4,0.2-0.6,0.3
			c-0.8,0.6-1.6,1.2-2.5,1.7c-0.3,0.2-0.3,0.3-0.1,0.6c0.9-0.4,1.8-0.8,2.7-1.3c0.8-0.5,1.6-0.5,2.5-0.3c-1,0-1.8,0.5-2.5,1.1
			c-0.7,0.6-1.4,1.2-2.1,1.9c0,0.1,0.1,0.1,0.1,0.2c0.4-0.1,0.8-0.1,1.2-0.3c1.1-0.5,2.2-1,3.2-1.6c0.6-0.4,1.3-0.2,2-0.2
			C49.1,34,48,35,46.7,35.9c0.5,0,1,0,1.6,0c1.1,0,2.2,0.2,3.1,0.8c0.2,0.1,0.4,0.1,0.6,0.1c0.9,0,1.7,0,2.6,0c0,0.1,0,0.1,0,0.2
			c-0.6,0.4-1.1,0.9-1.7,1.3c0,0,0,0.1,0,0.1c1-0.1,2-0.3,3.1-0.4c0.2,0,0.4-0.2,0.7-0.4c1.5-0.7,2.5-1.9,3.5-3.1
			c0.3-0.4,0.4-0.9,0.6-1.3c0.4-0.1,0.8,0,1.2,0.3c0.9,0.6,1.8,0.4,2.8,0.3c0.1,0,0.2-0.2,0.3-0.3c0.3-0.6,0.6-0.7,1.1-0.3
			c0.6,0.5,1.2,0.6,1.9,0.6c0.4,0,0.8,0,1.2,0.1c0.9,0.2,1.3,1.1,0.9,2c0,0.1-0.1,0.1-0.1,0.2c-0.4,0.6-0.8,1.2-1.2,1.8
			c-0.3-0.1-0.6-0.2-1-0.3c0,0.3,0,0.4,0,0.6c0.1,0.8-0.6,1.3-1.4,1c-1.4-0.4-2.6-1.3-3.8-2.2c-0.5-0.4-0.9-1-1.3-1.5
			c-0.1-0.1-0.2-0.3-0.4-0.4c-0.1,0.1-0.2,0.2-0.2,0.3c-1,1.4-2,2.8-3.1,4.1c-0.4,0.5-1.1,0.8-1.6,1.2c-0.1,0.1-0.2,0.1-0.4,0.1
			c-1.7,0-3.3,0-5-0.1c-2.4-0.1-4.7-0.3-7.1-0.4c-1.5-0.1-3-0.3-4.4-0.4c-0.2,0-0.5,0.1-0.7,0.2c-0.5,0.4-0.9,0.8-1.3,1.3
			c0.3,0,0.6,0,1,0c1.9-0.1,3.7,0.4,5.5,0.8c0.8,0.2,1.7,0.4,2.5,0.5c0.7,0.1,1.4-0.1,2.1-0.2c1-0.1,2-0.3,3.1-0.5
			c-0.4,0.5-0.8,1-1,1.4c-0.7,1.1-1.6,1.7-2.8,2.2c-1.6,0.6-3.2,0.8-4.9,0.8c-1.1,0.1-2.1,0.4-3.1,0.9c-0.9,0.4-1.4,1-1,2
			c0.1,0.3,0.1,0.5,0.1,0.9c0.9-0.1,1.8-0.1,2.6-0.2c0.3,0,0.5-0.1,0.8-0.1c1.1,0,2-0.4,3-0.9c1.5-0.9,3.1-1.7,4.8-2.6
			c-0.1,0.1-0.1,0.2-0.1,0.2c-2.2,2.3-4.4,4.6-6.5,6.9c-0.2,0.2-0.4,0.3-0.6,0.4c-1.4,0.6-2.8,0.8-4.3,0.7c-1.1-0.1-2.2,0-3.3,0
			c-0.2,0-0.5-0.1-0.6-0.2c-0.7-0.5-1.4-1-2.1-1.5c-0.2-0.1-0.3-0.3-0.4-0.5c-0.8-1.5-1.6-3.1-2.5-4.6c-0.1-0.2-0.3-0.4-0.6-0.5
			c-0.9-0.4-1.8-0.8-2.8-1.2c1.2,1.5,2.4,2.9,3.6,4.4c0,0-0.1,0.1-0.1,0.1c-1-0.7-2-1.4-3-2.2c0,0-0.1,0-0.1,0
			c0.2,0.4,0.4,0.8,0.5,1.2c0.1,0.3,0.1,0.7,0.1,1c0,0.3-0.1,0.6-0.2,0.9c-0.3,0.9-0.2,1.7,0.1,2.6c0.1,0.3,0.3,0.6,0.5,0.9
			c1.3,2,3.1,3.3,4.9,4.9c0.1,0.1,0.2,0.2,0.4,0.3c0,0,0,0,0,0.2c-0.5-0.2-1-0.5-1.5-0.7c-0.5-0.3-1.1-0.6-1.6-0.9
			c-0.5-0.3-1-0.6-1.6-0.9c0.5,0.5,1,1,1.6,1.4c0.6,0.5,0.9,1.1,1.1,1.9c-0.5-0.2-0.9-0.4-1.4-0.7c0.4,1,0.7,1.9,1.1,2.7
			c0,0-0.1,0.1-0.1,0.1c-0.7-0.6-1.3-1.2-2-1.8c-0.5-0.4-0.9-0.9-1.4-1.3c-1.8-1.6-3-3.7-4.4-5.5c-0.8-1.1-1.6-2.2-2.3-3.4
			c-0.3-0.4-0.6-0.6-1.1-0.5c-0.1,0.7-0.2,1.4,0.4,2.1c0.8,0.8,1.4,1.7,2.1,2.7c0.5,0.8,1,1.6,1.5,2.4c0,0-0.1,0.1-0.1,0.1
			c-0.5-0.6-1-1.1-1.5-1.7c-0.8-0.9-1.5-1.8-2.3-2.6c-0.4-0.5-1-0.8-1.5-1.2c-0.3-0.2-0.5-0.4-0.8-0.6c0.1-0.1,0.1-0.2,0.2-0.3
			c1-1.3,1.5-2.8,2.2-4.3c0.4-0.9,0.3-1.7,0.2-2.7c-0.2-1.6-0.8-3-1.3-4.5c-0.1-0.4-0.2-0.9-0.2-1.3c0-0.8,0-1.6,0-2.5
			c0-0.3-0.1-0.4-0.4-0.5c-0.5-0.2-0.9-0.4-1.3-0.7c-2.4-1.7-4.7-3.5-7.1-5.3c-0.4-0.3-0.7-0.7-1-1.1c-0.7-0.8-1.5-1.7-2.2-2.5
			c-1.5-1.5-2.3-3.5-3.2-5.4c-0.2-0.5-0.4-1-0.6-1.4c-1-2.2-1.5-4.6-1.6-7c0-0.4,0.1-0.8,0.3-1.2c0.2-0.4,0.9-0.5,1.5-0.4
			c0.3,0.1,0.7,0,1-0.1C3.4,10.8,3.7,11,4,11.3c0.7,0.7,1.3,1.3,2,2c1,1.1,2.3,1.5,3.7,1.9c0.3,0.1,0.6,0.2,0.9,0.2
			c0.6,0.1,1.1,0.3,1.4,0.9c0.1,0.1,0.3,0.2,0.4,0.2c1.4,0.3,2.6,0.8,3.6,1.9c0.3,0.3,0.8,0.5,1.1,0.8c0.4,0.3,0.7,0.3,1.1,0.1
			c0.4-0.3,0.9-0.2,1.3-0.1c2.2,0.8,4.5,1.7,6.7,2.6c0,0,0,0,0,0c0,0.6,0,1.3,0,1.9c0,0,0.1,0,0.1,0c0.1-0.4,0.2-0.8,0.3-1.1
			c0.8,0,0.9,0.1,1.1,1c0.1,0,0.3,0,0.4,0c0.2,0,0.3,0,0.5,0c0,0.2,0,0.5,0.1,0.7c0.3,0,0.6,0,0.9,0.1c0.3,0.1,0.6,0.2,0.9,0.3
			c0.1,0.1,0.2,0.4,0.1,0.5c-0.1,0.9-0.3,1.9-0.5,2.8c0,0.1,0,0.2-0.1,0.3c0,0,0.1,0,0.1,0c0.3-0.6,0.7-1.2,0.9-1.8
			c0.2-0.4,0.5-0.6,0.9-0.7c0.1-0.1,0.4,0.1,0.7,0.2c-0.4,0.5-0.8,1-1.2,1.5c0.7-0.1,1.5-0.2,2.3-0.3c-0.5,0.6-0.8,1.2-1.5,1.6
			c-1.1,0.5-1.9,1.4-2.4,2.5c-0.3,0.5-0.6,1-0.9,1.5C29,32.9,28.8,33,28.6,33c-1,0-2,0.3-3,0.7c-0.2,0.1-0.5,0.1-0.7,0.1
			c-0.2,0-0.5-0.1-0.7-0.1c-2.1-0.1-3.8-1.3-5.4-2.4c-1.1-0.8-2-1.8-3-2.6c-0.7-0.6-1.4-1.2-2.1-1.8c-0.2-0.1-0.4-0.2-0.6-0.2
			c-2.1-0.3-3.8-1.5-5.3-2.8c-0.2-0.1-0.3-0.3-0.4-0.5c-1.1-1.6-1.9-3.4-2.8-5.2c-0.4-0.9-1-1.8-1.5-2.7c-0.1,0-0.1,0-0.2,0.1
			c0.1,0.6,0.2,1.2,0.5,1.7c0.9,2,1.8,3.9,2.7,5.8c0.1,0.2,0.3,0.4,0.4,0.6c1,1,2.1,1.9,3.3,2.6c0.6,0.3,1.3,0.6,1.9,1
			c0.2,0.1,0.5,0.2,0.6,0.4c1.6,1.9,3.6,3.3,5.5,4.8C18.8,32.9,19.5,33.4,20.3,34z"/>
		<path class="st0" d="M37.4,22.2c0.2,0.6,0.4,1.3,0.6,1.9c0.1,0.3,0.2,0.6,0.3,1c0.5,2.1,1.7,2.5,3.5,2.6c1.6,0.2,3.1-0.4,4.7-0.8
			c1.9-0.5,3.7-1.3,5.4-2.3c0.9-0.5,1.8-0.8,2.9-0.9c1.4-0.1,2.8,0.1,4.2,0.7c0.3,0.1,0.5,0.4,0.8,0.5c-0.1-0.5-0.6-1.2-1.2-1.4
			c-1.2-0.4-2.4-0.9-3.6-1.2c-0.6-0.1-1.2,0-1.8,0.1c-1.3,0.3-2.4,1-3.5,1.7c-1.3,0.8-2.6,1.5-3.9,2.2c-1.5,0.8-3.1,1.1-4.6,0.6
			c-1-0.3-2-1-2.3-2.3c0.1,0.1,0.1,0.1,0.2,0.1c0.1,0.1,0.1,0.1,0.2,0.2c0.3,0.3,0.5,0.5,0.8,0.8c1.6,1.3,3.4,1.2,5.2,0.4
			c1.8-0.9,3.5-2,5.3-3c1.1-0.6,2.2-1.2,3.4-1.2c0.9,0,1.8,0.1,2.7,0.3c0.8,0.2,1.5,0.5,2.3,0.7c-0.7-0.5-1.2-1.2-2.1-1.3
			c-1.5-0.3-3.1-0.3-4.6,0.1c-0.3,0.1-0.6,0.2-0.9,0.3c-2,1.1-4.1,2.3-6.1,3.4c-0.1,0.1-0.3,0.1-0.4,0.1c-0.5,0-0.9,0-1.4,0.1
			c-0.9,0.1-1.5-0.2-2.1-0.9c-0.3-0.3-0.7-0.6-0.9-1c-0.3-0.5-0.5-1.1-0.7-1.7c0.8,0.9,1.6,1.7,2.4,2.5c0.5-0.3,0.5-0.7,0.4-1.1
			c-0.3-0.9-0.6-1.8-0.9-2.7c0-0.1-0.1-0.3-0.1-0.4c0,0,0.1,0,0.1-0.1c0.4,0.6,0.9,1.1,1.3,1.7c0.4,0.7,1.1,1,1.7,1.4
			c0.3,0.2,0.8-0.1,1-0.5c-0.7-0.3-1.4-0.7-1.7-1.4c0.6,0.3,1.2,0.6,1.8,0.9c0.3-0.5,0.2-0.8-0.3-1c-0.6-0.2-1-0.4-1.3-1
			c0.5,0.2,0.9,0.4,1.4,0.6c0-0.2,0.1-0.3,0.1-0.4c0-0.5,0.5-0.8,0.9-0.6c1,0.4,1,0.4,1.8,0.3c-0.4-0.5-0.9-1-1.3-1.4c0,0,0,0,0-0.1
			c0.7,0.4,1.3,0.9,2,1.3c0,0,0.1,0,0.1,0c0-0.1,0-0.3-0.1-0.4c-0.5-0.5-0.9-1.1-1.4-1.6c0.7,0.5,1.4,1,2,1.5c0,0,0.1,0,0.1-0.1
			c0-0.1,0-0.3-0.1-0.4c-0.7-0.6-1.4-1.3-2.1-1.9c-0.1-0.1-0.2-0.2-0.3-0.4c1.2,0.7,2.4,1.4,3.6,2.1c0.4-1-0.5-1.3-0.7-1.9
			c0.6,0.4,1.2,0.7,1.7,1.1c0.7,0.5,1.5,0.8,2.4,1c0.3,0.1,0.6-0.1,0.8-0.3c0.1-0.1,0-0.5,0-0.7c-0.1-0.3-0.3-0.6-0.4-0.9
			c1.5,0.3,2.6,1.3,3.6,2.4c0,0,0.1-0.1,0.1-0.1c-0.1-0.3-0.1-0.6-0.2-0.8c-0.1-0.3-0.3-0.5-0.5-0.8c0,0,0.1-0.1,0.1-0.1
			c0.4,0.3,0.8,0.5,1.1,0.8c0.8,0.7,1.6,1.5,2.4,2.3c0.4,0.4,0.8,0.2,1.2,0.1c0.1,0,0.4-0.4,0.4-0.6c-0.1-0.5-0.1-1.1-0.4-1.5
			c-0.4-0.7-1-1.3-1.5-1.9c0.2,0,0.4,0.1,0.5,0.1c-1.2-1-2.4-1.9-3.6-2.9c0,0,0-0.1,0.1-0.1c0.6,0.3,1.3,0.5,1.8,0.9
			c1.6,1,3.2,2,4.6,3.3c0.4,0.4,0.9,0.9,1.4,1.3c0.4,0.4,0.9,0.3,1.5,0.3c-0.3-0.4-0.5-0.7-0.7-1c0,0,0-0.1,0.1-0.1
			c0.7,0.3,1.3,0.6,2,0.9c0.6-0.7,1.3-1.4,1.9-2.1c0.1,0.1,0.1,0.1,0.2,0.2c0,0.2,0,0.5-0.1,0.7c0,0,0.1,0,0.1,0
			c0.2-0.6,0.4-1.1,0.6-1.7c0.5,2,1.1,3.4,0.1,5.3c0.5-0.1,0.8-0.3,1-0.8c0.2-0.3,0.4-0.7,0.6-1c0.6,0.4,1.1,0.8,1.7,1.2
			c0,0,0.1-0.1,0.1-0.1c-0.3-0.4-0.6-0.8-0.8-1.2c1.3-0.3,2.3-0.8,3.3,1.2c0.1-0.3,0.2-0.6,0.3-0.9c2.3,2.2,2.8,6.4,1.1,7.6
			c-0.3-0.4-0.7-0.9-0.8-1.3c0-0.5-0.3-0.7-0.6-1c-0.6-0.7-1.5-1.1-2.5-1.1c-0.5,0-1.1,0.2-1.6,0.4c-0.7,0.3-1.3,0.7-1.9,1.1
			c-0.2,0.1-0.4,0.3-0.5,0.6c1,0,1.8-0.2,2.6-0.6c0.9-0.4,1.8-0.6,2.7-0.4c0.3,0.1,0.6,0.3,0.9,0.5c0,0,0,0.1-0.1,0.1
			c-0.4-0.1-0.8-0.2-1.2-0.3c-0.9-0.1-1.7,0.2-2.5,0.6c-1.1,0.5-2.1,1-2.9,2c0.5-0.2,1-0.3,1.6-0.5c0.9-0.3,1.7-0.7,2.6-1
			c0.8-0.3,1.7-0.3,2.6,0c0.6,0.2,1.1,0.6,1.3,1.3c-0.3-0.2-0.5-0.3-0.7-0.4c-0.9-0.5-1.8-0.6-2.8-0.2c-1.1,0.5-2.3,1-3.4,1.5
			c-0.2,0.1-0.3,0.3-0.4,0.5c0.7-0.3,1.5-0.5,2.2-0.8c1.2-0.4,2.4-0.6,3.6-0.4c0.5,0.1,1.1,0.4,1.5,0.8c1.1,1,1,2.3,0.8,3.6
			c0,0.3-0.3,0.4-0.8,0.3c-0.1-0.7,0.1-1.4-0.4-2c-0.1,0.4-0.2,0.7-0.3,1.1c-0.2,0.5-0.5,0.7-1,0.7c-0.6-0.1-1.2-0.1-1.7-0.6
			c-0.6-0.5-0.5-1.2-0.7-1.9c0-0.2,0-0.5,0-0.8c-1.3,0.2-2.3,0.8-3.1,1.9c2.5,1.2,5,2.4,8,2.4c-0.3,0.5-0.5,0.8-0.7,1.2
			C78,35.8,78,36.1,78,36.4c0,0.8-0.5,1.5-0.8,2.1c-0.2,0.4-1.3,0.5-1.9,0.3c-1.3-0.5-2-1.5-2.8-2.5c-0.5-0.7-1-1.5-1.6-2.1
			c-0.4-0.5-0.7-1.1-0.7-1.7c0-0.1,0-0.3-0.1-0.4c-0.6-0.6-1.1-1.3-1.8-1.9c-0.5-0.5-1.2-0.4-1.9-0.4c-1.5,0-2.6,0.8-3.9,1.3
			c-0.1,0.1-0.3,0.1-0.4,0.2c0,0,0,0,0,0c1.6-1.3,3-2.6,6.6-1.5c0-1.1-0.3-2.1-1.4-2.6c0,0,0.1-0.1,0.1-0.1c0.4,0.1,0.8,0.2,1.1,0.3
			c0-0.8-0.7-0.9-1.2-1.2c0,0,0-0.1,0.1-0.1c0.4,0.2,0.9,0.3,1.3,0.5c0-0.7-0.4-1.2-1-1.6c0,0,0-0.1,0.1-0.1
			c0.3,0.1,0.6,0.2,0.9,0.3c0.1-0.4-0.2-0.7-0.5-1c-1.2-0.9-2.4-0.6-3.5,0.1c-0.1,0.1-0.1,0.2-0.2,0.3c0.9,0.1,1.8,0.1,2.6,0.2
			c0,0,0,0.1,0,0.1c-1.5,0.1-2.9,0.4-3.9,1.6c1-0.2,2-0.6,3-0.2c-1.1,0.2-2.1,0.6-3,1.3c0.3,0,0.4,0,0.6,0c0.8,0,1.6,0,2.5,0
			c0.2,0,0.3,0.1,0.5,0.1c0,0,0,0.1,0,0.1c-0.3,0-0.6,0-0.9,0.1c-0.8,0.2-1.7,0.5-2.5,0.8c-0.7,0.2-1.3,0.3-2,0.1
			c-0.6-0.1-0.9-0.4-1.1-1c0-0.1-0.1-0.2-0.2-0.3c-0.3,0.7,0,1.7-1.1,1.9c0.2-0.8,0.2-1.5-0.5-2.2c0,0.3,0,0.4,0,0.5
			c-0.1,0.4-0.1,0.9-0.3,1.3c-0.2,0.6-0.7,0.9-1.4,0.8c-1.1-0.1-2.1-1-2.1-2.5c0-0.2,0-0.4,0-0.6c-1.7-0.3-2.7,0.2-4.3,1.8
			c1.4,0.8,2.9,1.3,4.4,1.7c1.6,0.4,3.2,0.3,4.7,0.2c0.2,0.7,0.2,0.9-0.4,1.2c-0.7,0.4-1.5,0.7-2.2,1.1c0,0,0-0.1-0.1-0.1
			c0.3-0.2,0.6-0.4,1-0.6c-1.4,0.4-2.7-0.2-4-0.3c-0.4-0.1-0.8-0.3-1.1-0.5c-1.6-1.1-3.3-1.5-5.2-1.5c-2.7-0.1-5.4-0.3-8.1-0.4
			c-0.6,0-1-0.5-1.4-0.8c-0.5-0.5-0.9-1-1.1-1.8c-0.3-1.5-0.7-3-1.1-4.6c0-0.1,0-0.1,0.1-0.3c0.3,0.6,0.6,1.1,0.8,1.7
			c0.3,1,0.6,2,0.9,3c0.5,1.4,1.6,1.9,3,2.2c0.6,0.1,1.2,0.1,1.8,0.2c1.5,0.1,3-0.3,4.4-0.8c2.4-0.8,4.8-1.7,7.1-2.5
			c0.2-0.1,0.3-0.1,0.5-0.1c1.3,0,2.7-0.2,4,0c0.5,0.1,0.9,0.2,1.2,0.6c0.1,0.1,0.2,0.2,0.3,0.4c0.1-0.6-0.1-1.1-0.5-1.3
			c-0.6-0.3-1.3-0.6-2-0.7c-1.6-0.1-3.2,0-4.8,0.6c-2.3,1-4.6,2-7,2.7c-1.9,0.5-3.8,0.7-5.6,0c-0.7-0.3-1.2-0.7-1.5-1.5
			C37.8,25,37.5,23.7,37.4,22.2z"/>
		<path class="st0" d="M28.2,13.1c0.9-0.4,1.7-0.8,2.6-1.2c0.1-0.1,0.3-0.1,0.4-0.1c1.1,0.5,2.2,0.2,3.2,0c0.4-0.1,0.9-0.2,1.4-0.3
			c-0.1-0.4-0.2-0.7-0.3-1c0.6,0.4,1.1,0.8,1.6,1c0.4,0.2,0.9,0.4,1.3,0.5c0.1,0,0.3-0.1,0.5-0.2c0.5-0.2,1-0.4,1.5-0.6
			c0,0.1,0.1,0.1,0.1,0.2c-0.4,0.3-0.8,0.7-1.2,1c1.3,0.1,2.2-1,3.5-1.1c-0.6,0.5-1.1,0.9-1.7,1.3c2.3,0.7,4.6,1.4,7.1,1.2
			c-0.1-0.4-0.1-0.7-0.2-1c0.4,0.6,1,0.8,1.7,0.8c1-0.1,2,0.1,2.9,0.6c-0.3,0-0.5-0.1-0.8,0c-1,0.1-2,0.2-3,0.2c-1,0-1.9,0-2.9,0.1
			c-0.5,0-1,0.2-1.6,0.3c-0.1,0-0.2,0.2-0.3,0.4c-0.2,0.4-0.3,0.7-0.5,1.1c0-0.4-0.1-0.8-0.1-1.2c0-0.3-0.1-0.4-0.3-0.5
			c-1.9-0.9-3.8-1.5-5.9-1.7c-0.5,0-1,0.1-1.5,0.1c-2.3,0-4.2,1.1-6.3,2c0.7,0,1.3,0,1.9,0c1.2,0,2.4-0.1,3.5-0.4
			c0.2-0.1,0.5-0.1,0.7,0c1.2,0.2,2.5,0.4,3.7,0.6c-1.4-0.6-2.9-1.1-4.5-1.3c1.2-0.1,2.4-0.4,3.5,0.3c0.1,0.1,0.2,0.1,0.4,0.1
			c1.4,0.3,2.1,1.3,2.7,2.5c-0.7,0-1.3-1-2.2-0.5c1.1,0.8,2.3,1.4,3,2.6c-0.6,0.4-1.3,0.8-1.9,1.2c-0.4-0.2-0.8-0.4-0.7-1.1
			c0-0.3-0.1-0.6-0.2-0.9c-0.8,0.5-0.6,1.3-0.9,2c-0.5-0.6-1-1.1-1.4-1.7c0,0-0.1,0.1-0.1,0.1c0.3,0.7,0.5,1.4,0.8,2.1
			c0,0-0.1,0.1-0.1,0.1c-0.6-0.7-1.2-1.4-1.9-2c-0.2-0.2-0.5-0.4-0.7-0.4c-3.4-0.8-6.9-0.6-10.3-0.6c-0.5,0-1.1,0-1.6,0.1
			c0,0,0,0-0.1,0.1c0.3,0.2,0.6,0.5,0.9,0.5c1.6,0.5,3.3,0.9,4.9,1.3c0.1,0,0.1,0,0.2,0.1c-1.3,0.5-7-0.5-9.2-1.5
			c0.5-0.7,0.9-1.6,1.6-2.2c2.2-2.2,4.4-4.4,6.8-6.5c1.6-1.5,3.4-2.8,5.2-4.1c1-0.7,2.2-1.2,3.4-1.8c-0.5,0.3-1,0.7-1.4,1
			c-2.7,2-5.3,4.1-7.6,6.6c-0.5,0.6-0.7,1.4-1.1,2.1c0,0,0.1,0.1,0.1,0.1c0.7-0.5,1.3-1.1,2-1.6c0.7-0.5,1.4-0.9,2.1-1.3
			c0,0.1,0.1,0.1,0.1,0.2C29.9,11.5,29.1,12.3,28.2,13.1C28.2,13.1,28.2,13.1,28.2,13.1z"/>
		<path class="st0" d="M54.6,58.8c-0.4-0.4-0.6-0.8-0.9-1.1c-0.4-0.3-0.5-0.7-0.5-1.2c0-0.2,0-0.5,0-0.7c0.6,1,0.9,2.3,2.3,2.6
			c-0.3-0.4-0.6-0.9-1-1.3c0,0,0.1-0.1,0.1-0.1c0.5,0.5,0.9,1.1,1.6,1.3c-0.2-0.7-0.6-1.4-0.7-2.2c-0.2-0.9-0.1-1.8,0.5-2.6
			c1-1.3,2.1-1.5,3.5-0.7c0.8,0.4,1.5,0.9,2.4,1c1.7,0.3,3.4,0.6,5.1,0.2c2.7-0.5,4.4-2.2,5.3-4.7c0.5-1.3,0.9-2.7,1.3-4.1
			c0.1-0.4,0-0.9,0-1.3c0-0.3,0-0.6-0.1-0.9c1.3,0.6,2.5,1.2,3.7,1.7c0.2-0.5,0-0.8-0.4-1c-0.7-0.4-1.4-0.7-2.2-0.8
			c-0.7-0.1-1.2-0.6-1.3-1.2c-0.4-2-1.6-3.7-2.5-5.5c-0.1-0.2-0.1-0.3-0.2-0.5c0,0,0.1-0.1,0.1-0.1c0.1,0.1,0.2,0.2,0.3,0.3
			c1,1.3,2,2.6,3,3.8c0.4,0.4,0.8,0.8,1.3,1.1c0.5,0.2,1,0.3,1.5,0c0.5-0.4,1.1-0.6,1.8-0.5c0.5,0.1,0.8,0.2,0.8,0.8
			c0.1,0.8,0,1.6-0.5,2.4c-1.4,2.1-2.7,4.3-4.1,6.4c-0.5,0.8-1.3,1.4-2,2c-1.6,1.5-3.5,2.8-5.5,3.7c-0.5,0.2-0.8,0.5-1,0.9
			c-1.2,1.7-2.8,2.8-5,2.9c-2.1,0.1-4.3,0.2-6.4,0.3c-0.8,0-1.5-0.5-2-1.1c-1-1.2-1.4-2.6-1.5-4.1c0.3,0.8,0.6,1.6,1,2.3
			C52.7,57.8,53.4,58.6,54.6,58.8z"/>
		<path class="st0" d="M81,42.5c0.2-0.2,0.3-0.4,0.5-0.6c1.1-1,1.7-2.2,2.3-3.6c0.6-1.4,1.4-2.7,2.1-4.1c0.7-1.3,1.8-2.2,2.9-3.2
			c0.3-0.3,0.7-0.4,1-0.7c0.9-0.7,1.9-1.1,3-1.3c-0.9-0.3-1.9-0.4-2.8,0.1c-1.1,0.6-2.2,1.3-3.3,1.9c-0.7-0.3-1.5-0.6-2.3-1
			c0,0,0,0.1-0.1,0.1c0.5,0.4,1.1,0.8,1.7,1.3c-0.6,0.6-1.1,1.1-1.7,1.6c-0.3,0.3-0.8,0.3-1.1,0.6c-0.2,0.3-0.2,0.7-0.3,1.2
			c-0.5-0.1-0.9-0.3-1.4-0.4c0.2,0.5,0.3,0.9,0.5,1.4c-0.5-0.3-0.9-0.5-1.2-0.7c-0.1-0.1-0.2-0.3-0.2-0.5c-0.1-0.7-0.3-1.3-0.7-1.9
			c-0.3-0.5-0.4-1-0.7-1.6c0.4,0.1,0.8,0.1,1.1,0.2c-0.4-0.6-1.1-0.7-1.4-1.5c0.7,0,1.3,0,1.9,0c0.2,0,0.4,0,0.6-0.1
			c2.1-0.5,3.9-1.6,5.6-2.9c0.7-0.5,1.2-1.2,2.2-1.3c0.6,0,1.3,0,1.9,0.1c2.1,0.3,3.6,1.7,5,3.2c0.1,0.1,0.2,0.3,0.3,0.4
			c0.2,0.4,0,0.7-0.4,0.7c-1.5,0-2.9,0.1-4.4,0.1c-0.2,0-0.3,0-0.4,0.1c-1.5,1.1-3,2.1-4.3,3.3c-0.8,0.7-1.2,1.8-1.8,2.7
			c-0.3,0.5-0.5,1.1-0.7,1.7c-0.4,1.2-1,2.2-1.8,3.1C82.4,41.7,81.7,42.1,81,42.5C81,42.5,81,42.5,81,42.5z"/>
		<path class="st0" d="M65.3,44.1c0.3,0.4,0.5,0.7,0.7,1c0.2,0.3,0.5,0.3,0.7,0.1c0.1-0.1,0.1-0.4,0.1-0.7c0-0.2-0.1-0.4-0.2-0.6
			c0.9,0.2,0.9,1.2,1.5,1.7c0.4-0.6,0.2-1.2-0.1-1.7c0.7,0.2,0.7,1,1.1,1.6c0.2-0.5,0.4-0.9,0.6-1.3c0,0,0,0,0.1,0
			c0,0.3-0.1,0.6-0.1,0.9c0,0.2,0,0.3,0.1,0.5c0.2-0.1,0.4-0.1,0.5-0.2c0.2-0.4,0.4-0.9,0.5-1.3c0.2,0.4,0.2,0.5-0.1,1.5
			c0.8,0.2,1.3-0.3,1.3-1.5c0,0,0.1,0,0.1,0c0,0.4,0.1,0.9,0,1.2c-0.3,0.5-0.4,0.9,0.1,1.3c-1-0.1-2-0.2-3-0.3c-1,0-2,0.2-3,0.1
			c-0.9,0-1.8-0.1-2.5-0.4c-2-0.9-4.2-1.2-6.3-1.4c-1.1-0.1-2.1,0-3.3,0c0.3-0.4,0.6-0.8,1.2-1c1-0.2,2-0.7,2.5-1.7
			c0.1-0.3,0.2-0.6,0.3-0.9c0.2,0.5,0.2,1-0.1,2.4c0.8-0.4,1.3-1.1,1.5-2c0.3,0.8,0.1,1.6-0.2,2.4c1.4,0.3,1.9,0,2.4-1.6
			c0.1,0.5-0.1,1.3-0.6,2.4c0.4,0.1,0.8,0.1,1.1,0.2c0.2-0.5,0.3-1,0.5-1.4c0.1-0.2,0.4-0.3,0.7-0.4c-0.4,0.4-0.5,1-0.5,1.5
			c0,0.4,0.2,0.5,0.5,0.5C64.2,45.1,64.9,44.9,65.3,44.1z"/>
		<path class="st0" d="M59.6,12.2c0.1-0.4,0.3-0.9,0.4-1.3c0.1-0.4,0.3-0.3,0.6-0.2c0.1,0,0.2,0.1,0.2,0.2c0.8,0.9,2,1.2,3.1,1.6
			c0.7,0.2,1.2-0.2,1.7-0.6c0.1-0.1,0.3-0.3,0.5-0.4c-0.1,0.3-0.2,0.6-0.3,0.8c0.7,0.3,1.5,0.6,2.2,0.9c0,0,0,0.1,0,0.1
			c-1.3-0.1-2.7-0.1-4-0.2c-0.3,0-0.6,0.1-0.9,0.1c-0.3,0-0.7,0.1-0.9-0.1c-0.6-0.5-1.3-0.5-1.9-0.5c-1.7,0.1-3.3,0.2-5,0.3
			c-0.7,0.1-1.4-0.4-1.5-1.2c0-0.2-0.1-0.4,0-0.7c0.1,0.1,0.1,0.2,0.2,0.3c0.9,1.1,1.8,1.3,3.1,0.6c0.3-0.2,0.7-0.4,1.1-0.6
			C58.3,12.4,59,12.1,59.6,12.2z"/>
		<path class="st0" d="M51.9,7.5c-1.4-0.1-2.6,0.6-3.9,1.1c-0.2,0.1-0.4,0.1-0.5,0c-0.8-0.3-1.6-0.5-2.4-0.8c-0.1,0-0.2-0.1-0.3-0.2
			c-0.4-0.8-1.2-0.9-1.9-1.1C42.5,6.4,42,6.2,41.7,6c-0.5-0.3-1-0.7-1.5-1.1c-0.1-0.1-0.2-0.2-0.3-0.4c1.2,0.5,2.3,0.8,3.6,0.3
			c-0.2,0.2-0.4,0.3-0.7,0.5c1.1,1.1,2.2,0.4,3.3,0.3c-0.5,0.3-0.9,0.5-1.3,0.8C44.9,6.9,45.1,7,45.5,7c0.5,0,0.9,0,1.4,0.1
			c0.1,0,0.4,0.2,0.4,0.3c0,0.5,0.4,0.8,0.9,0.9C49.1,7.1,50.5,7.1,51.9,7.5z"/>
		<path class="st0" d="M69.2,12.9c1,0.7,2,1.4,2.9,2.2c0.4,0.3,0.6,0.9,0.9,1.3c0.1,0.1,0.2,0.3,0.4,0.4c1.8,0.7,3.4,1.7,4.6,3.4
			c-0.1-0.1-0.2-0.1-0.2-0.1c-1-0.7-1.9-1.5-2.9-2.2c-0.5-0.3-1.1-0.4-1.7-0.7c-0.2-0.1-0.4-0.2-0.5-0.4c-0.7-1.1-1.5-2.1-2.7-2.7
			c-0.4-0.2-0.7-0.6-1-0.9C69,13.1,69.1,13,69.2,12.9z"/>
		<path class="st0" d="M65.4,9.2c-0.6-0.7-1.2-1.4-1.8-2.1c-0.5-0.7-1.1-1.2-1.9-1.5C61,5.2,60.4,4.7,60,4c-0.3-0.4-0.7-0.7-1.2-1
			c-1.9-1-4-1.5-6.1-2.3C51,0.1,49.3,0.2,47.6,0c-0.1,0-0.2,0-0.4,0c0.9,0,1.8,0,2.7,0c2,0,3.8,1,5.7,1.5c0.8,0.2,1.6,0.6,2.4,0.9
			c0.9,0.3,1.7,0.9,2.3,1.7c0.4,0.6,1,1,1.7,1.3c0.6,0.3,1.1,0.6,1.5,1.1C64.2,7.3,64.9,8.2,65.4,9.2C65.5,9.1,65.5,9.1,65.4,9.2z"
			/>
	</g>
</g>
<g>
	<path class="st0" d="M116.3,27.4c-0.9,0.5-3,1-5.6,1c-6.8,0-11-4.3-11-10.8c0-7.1,4.9-11.4,11.5-11.4c2.6,0,4.4,0.5,5.2,1l-0.9,3.1
		c-1-0.4-2.4-0.8-4.2-0.8c-4.4,0-7.6,2.8-7.6,7.9c0,4.7,2.8,7.8,7.5,7.8c1.6,0,3.3-0.3,4.3-0.8L116.3,27.4z"/>
	<path class="st0" d="M133.8,20.1c0,5.7-4,8.3-8,8.3c-4.4,0-7.8-3-7.8-8c0-5.1,3.4-8.3,8.1-8.3C130.7,12.1,133.8,15.4,133.8,20.1z
		 M122.1,20.3c0,3,1.5,5.3,3.9,5.3c2.2,0,3.8-2.2,3.8-5.3c0-2.4-1.1-5.2-3.8-5.2C123.2,15,122.1,17.7,122.1,20.3z"/>
	<path class="st0" d="M137.1,17.1c0-1.8,0-3.3-0.1-4.6h3.4l0.2,2.3h0.1c0.8-1.2,2.2-2.7,4.8-2.7c2,0,3.6,1.2,4.3,2.9h0.1
		c0.5-0.9,1.2-1.5,1.9-2c0.9-0.6,1.9-0.9,3.1-0.9c2.6,0,5.2,1.8,5.2,6.8V28h-3.8v-8.6c0-2.6-0.9-4.1-2.8-4.1c-1.3,0-2.3,1-2.8,2.1
		c-0.1,0.4-0.2,0.9-0.2,1.3V28h-3.8v-9c0-2.2-0.9-3.7-2.7-3.7c-1.5,0-2.5,1.2-2.8,2.2c-0.2,0.4-0.2,0.8-0.2,1.3V28h-3.8V17.1z"/>
	<path class="st0" d="M164.2,17.6c0-2-0.1-3.7-0.1-5.2h3.5l0.2,2.4h0.1c1.2-1.8,3-2.8,5.3-2.8c3.6,0,6.6,3.1,6.6,7.9
		c0,5.6-3.6,8.4-7.1,8.4c-2,0-3.6-0.8-4.4-2.1h-0.1v8.1h-3.9V17.6z M168.1,21.5c0,0.4,0,0.7,0.1,1.1c0.4,1.6,1.8,2.8,3.5,2.8
		c2.5,0,4-2.1,4-5.2c0-2.8-1.3-5-3.9-5c-1.6,0-3.1,1.2-3.5,2.9c-0.1,0.3-0.2,0.7-0.2,1V21.5z"/>
	<path class="st0" d="M182.9,5.3h4V28h-4V5.3z"/>
	<path class="st0" d="M193.9,21.3c0.1,2.8,2.3,4,4.8,4c1.8,0,3.1-0.3,4.3-0.7l0.6,2.7c-1.3,0.5-3.2,1-5.4,1c-5.1,0-8-3.1-8-7.9
		c0-4.3,2.6-8.4,7.6-8.4c5.1,0,6.7,4.2,6.7,7.6c0,0.7-0.1,1.3-0.1,1.7H193.9z M200.8,18.6c0-1.4-0.6-3.8-3.2-3.8
		c-2.4,0-3.5,2.2-3.6,3.8H200.8z"/>
	<path class="st0" d="M212.2,8v4.4h3.7v2.9h-3.7v6.9c0,1.9,0.5,2.9,2,2.9c0.7,0,1.2-0.1,1.5-0.2l0.1,3c-0.6,0.2-1.6,0.4-2.8,0.4
		c-1.4,0-2.7-0.5-3.4-1.3c-0.8-0.9-1.2-2.3-1.2-4.4v-7.3h-2.2v-2.9h2.2V8.9L212.2,8z"/>
	<path class="st0" d="M221.5,21.3c0.1,2.8,2.3,4,4.8,4c1.8,0,3.1-0.3,4.3-0.7l0.6,2.7c-1.3,0.5-3.2,1-5.4,1c-5.1,0-8-3.1-8-7.9
		c0-4.3,2.6-8.4,7.6-8.4c5.1,0,6.7,4.2,6.7,7.6c0,0.7-0.1,1.3-0.1,1.7H221.5z M228.3,18.6c0-1.4-0.6-3.8-3.2-3.8
		c-2.4,0-3.5,2.2-3.6,3.8H228.3z"/>
	<path class="st0" d="M105.8,66.4v-9L99,44.9h4.5l2.6,5.5c0.7,1.6,1.3,2.8,1.9,4.3h0.1c0.5-1.4,1.2-2.7,1.9-4.3l2.6-5.5h4.4
		l-7.2,12.5v9.1H105.8z"/>
	<path class="st0" d="M130.9,58.5c0,5.7-4,8.3-8,8.3c-4.4,0-7.8-3-7.8-8c0-5.1,3.4-8.3,8.1-8.3C127.8,50.5,130.9,53.8,130.9,58.5z
		 M119.2,58.7c0,3,1.5,5.3,3.9,5.3c2.2,0,3.8-2.2,3.8-5.3c0-2.4-1.1-5.2-3.8-5.2C120.3,53.4,119.2,56.1,119.2,58.7z"/>
	<path class="st0" d="M148.1,61.8c0,1.9,0.1,3.4,0.1,4.7h-3.5l-0.2-2.4h-0.1c-0.7,1.1-2.2,2.7-5,2.7c-2.8,0-5.4-1.7-5.4-6.8v-9.2
		h3.9v8.5c0,2.6,0.8,4.3,2.9,4.3c1.6,0,2.6-1.1,3-2.1c0.1-0.4,0.2-0.8,0.2-1.2v-9.4h3.9V61.8z"/>
	<path class="st0" d="M152.4,55.9c0-2.1,0-3.6-0.1-5h3.4l0.1,3h0.1c0.8-2.2,2.6-3.3,4.3-3.3c0.4,0,0.6,0,0.9,0.1v3.7
		c-0.3-0.1-0.7-0.1-1.2-0.1c-1.9,0-3.2,1.2-3.5,3c-0.1,0.4-0.1,0.8-0.1,1.2v8.1h-3.9V55.9z"/>
	<path class="st0" d="M173.4,48.2h-6.1v-3.3h16.3v3.3h-6.2v18.3h-3.9V48.2z"/>
	<path class="st0" d="M184.3,55.9c0-2.1,0-3.6-0.1-5h3.4l0.1,3h0.1c0.8-2.2,2.6-3.3,4.3-3.3c0.4,0,0.6,0,0.9,0.1v3.7
		c-0.3-0.1-0.7-0.1-1.2-0.1c-1.9,0-3.2,1.2-3.5,3c-0.1,0.4-0.1,0.8-0.1,1.2v8.1h-3.9V55.9z"/>
	<path class="st0" d="M204.2,66.4l-0.3-1.7h-0.1c-1,1.2-2.6,2.1-4.6,2.1c-3.1,0-4.9-2.3-4.9-4.6c0-3.9,3.5-5.9,9.2-5.9V56
		c0-1-0.4-2.7-3.2-2.7c-1.5,0-3.1,0.5-4.2,1.2l-0.8-2.6c1.2-0.7,3.2-1.4,5.6-1.4c5,0,6.4,3.2,6.4,6.6v5.6c0,1.4,0.1,2.8,0.2,3.7
		H204.2z M203.7,58.8c-2.8-0.1-5.4,0.5-5.4,2.9c0,1.5,1,2.2,2.2,2.2c1.6,0,2.7-1,3.1-2.1c0.1-0.3,0.1-0.6,0.1-0.9V58.8z"/>
	<path class="st0" d="M215.9,46.5c0,1.2-0.9,2.1-2.2,2.1c-1.3,0-2.2-0.9-2.2-2.1c0-1.2,0.9-2.1,2.2-2.1
		C215,44.4,215.8,45.3,215.9,46.5z M211.7,66.4V50.8h4v15.6H211.7z"/>
	<path class="st0" d="M219.9,55.5c0-1.8,0-3.3-0.1-4.6h3.5l0.2,2.3h0.1c0.7-1.2,2.4-2.7,5-2.7c2.7,0,5.5,1.8,5.5,6.7v9.2H230v-8.8
		c0-2.2-0.8-3.9-3-3.9c-1.6,0-2.7,1.1-3.1,2.3c-0.1,0.4-0.2,0.8-0.2,1.3v9.2h-4V55.5z"/>
	<path class="st0" d="M242.4,46.5c0,1.2-0.9,2.1-2.2,2.1c-1.3,0-2.2-0.9-2.2-2.1c0-1.2,0.9-2.1,2.2-2.1
		C241.5,44.4,242.3,45.3,242.4,46.5z M238.2,66.4V50.8h4v15.6H238.2z"/>
	<path class="st0" d="M246.4,55.5c0-1.8,0-3.3-0.1-4.6h3.5l0.2,2.3h0.1c0.7-1.2,2.4-2.7,5-2.7c2.7,0,5.5,1.8,5.5,6.7v9.2h-3.9v-8.8
		c0-2.2-0.8-3.9-3-3.9c-1.6,0-2.7,1.1-3.1,2.3c-0.1,0.4-0.2,0.8-0.2,1.3v9.2h-4V55.5z"/>
	<path class="st0" d="M278.9,50.8c-0.1,1.1-0.1,2.3-0.1,4.5v8.8c0,3.3-0.7,5.6-2.3,7.1c-1.6,1.4-3.9,1.9-6,1.9c-2,0-4.1-0.4-5.4-1.2
		l0.9-3c1,0.6,2.7,1.2,4.5,1.2c2.6,0,4.5-1.3,4.5-4.7V64h-0.1c-0.9,1.4-2.5,2.3-4.5,2.3c-3.9,0-6.6-3.2-6.6-7.6
		c0-5.1,3.3-8.2,7.1-8.2c2.4,0,3.8,1.2,4.5,2.4h0.1l0.2-2.1H278.9z M274.8,57.1c0-0.4,0-0.7-0.1-1.1c-0.4-1.4-1.5-2.5-3.2-2.5
		c-2.2,0-3.8,1.9-3.8,5.1c0,2.7,1.3,4.8,3.8,4.8c1.5,0,2.8-1,3.2-2.4c0.1-0.4,0.2-1,0.2-1.4V57.1z"/>
</g>
</svg>
